<svg width="108" height="108" viewBox="0 0 108 108" fill="none" xmlns="http://www.w3.org/2000/svg">
<g clip-path="url(#clip0_349_204)">
<path fill-rule="evenodd" clip-rule="evenodd" d="M53.8194 0C24.0842 0 0 24.0842 0 53.8194C0 77.6345 15.4058 97.7496 36.799 104.881C39.49 105.352 40.4991 103.737 40.4991 102.324C40.4991 101.046 40.4319 96.8077 40.4319 92.3003C26.9097 94.7895 23.4115 89.0039 22.3351 85.9766C21.7296 84.4293 19.1059 79.6528 16.8186 78.3746C14.9349 77.3654 12.2439 74.8763 16.7513 74.809C20.9896 74.7418 24.0169 78.7109 25.026 80.3255C29.8698 88.4657 37.6063 86.1784 40.701 84.7656C41.1719 81.2674 42.5846 78.9128 44.1319 77.5673C32.1571 76.2218 19.6441 71.5799 19.6441 50.9939C19.6441 45.1411 21.7296 40.2973 25.1606 36.5299C24.6224 35.1845 22.7387 29.668 25.6988 22.2678C25.6988 22.2678 30.2062 20.855 40.4991 27.7843C44.8047 26.5734 49.3793 25.9679 53.954 25.9679C58.5286 25.9679 63.1033 26.5734 67.4089 27.7843C77.7018 20.7878 82.2092 22.2678 82.2092 22.2678C85.1693 29.668 83.2856 35.1845 82.7474 36.5299C86.1784 40.2973 88.2639 45.0738 88.2639 50.9939C88.2639 71.6471 75.6836 76.2218 63.7088 77.5673C65.6597 79.2491 67.3416 82.4783 67.3416 87.5239C67.3416 94.7222 67.2743 100.508 67.2743 102.324C67.2743 103.737 68.2834 105.419 70.9744 104.881C92.2331 97.7496 107.639 77.5673 107.639 53.8194C107.639 24.0842 83.5547 0 53.8194 0Z" fill="#E0E1F5"/>
</g>
<defs>
<clipPath id="clip0_349_204">
<rect width="107.639" height="107.639" fill="white"/>
</clipPath>
</defs>
</svg>
