<svg width="108" height="108" viewBox="0 0 108 108" fill="none" xmlns="http://www.w3.org/2000/svg">
<g clip-path="url(#clip0_349_195)">
<path fill-rule="evenodd" clip-rule="evenodd" d="M11.9599 107.639H95.679C102.284 107.639 107.639 102.284 107.639 95.679V11.9599C107.639 5.35462 102.284 0 95.679 0H11.9599C5.35462 0 0 5.35462 0 11.9599V95.679C0 102.284 5.35462 107.639 11.9599 107.639Z" fill="#007EBB"/>
<path fill-rule="evenodd" clip-rule="evenodd" d="M92.689 92.6889H76.716V65.4833C76.716 58.0243 73.8818 53.856 67.978 53.856C61.5554 53.856 58.1998 58.1938 58.1998 65.4833V92.6889H42.8064V40.8628H58.1998V47.8437C58.1998 47.8437 62.8283 39.2794 73.8261 39.2794C84.8189 39.2794 92.689 45.9923 92.689 59.8758V92.6889ZM24.442 34.0766C19.1987 34.0766 14.9498 29.7944 14.9498 24.5131C14.9498 19.2319 19.1987 14.9497 24.442 14.9497C29.6854 14.9497 33.9317 19.2319 33.9317 24.5131C33.9317 29.7944 29.6854 34.0766 24.442 34.0766ZM16.4935 92.6889H32.5449V40.8628H16.4935V92.6889Z" fill="#E0E1F5"/>
</g>
<defs>
<clipPath id="clip0_349_195">
<rect width="107.639" height="107.639" fill="white"/>
</clipPath>
</defs>
</svg>
