<svg width="107" height="68" viewBox="0 0 107 68" fill="none" xmlns="http://www.w3.org/2000/svg">
<path d="M72.3662 37.7139L103.516 67.708H2.88477L34.0322 37.7129L33.2852 36.9365C34.7286 38.1468 36.1564 39.295 37.5557 40.3584C40.4406 42.551 43.2452 44.4206 45.834 45.75C48.384 47.0595 50.9142 47.9453 53.1992 47.9453C55.4843 47.9453 58.0144 47.0595 60.5645 45.75C63.1533 44.4206 65.9578 42.551 68.8428 40.3584C70.243 39.2942 71.6716 38.1449 73.1162 36.9336L72.3662 37.7139ZM0.177734 3.28223C1.27033 4.54584 2.84576 6.3495 4.78125 8.5127C8.65043 12.8371 13.9666 18.6092 19.7441 24.3867C23.3974 28.0399 27.2522 31.7113 31.0537 35.0273L0 64.9307V3.0752C0.0579437 3.14232 0.116765 3.21171 0.177734 3.28223ZM106.398 64.9307L75.3447 35.0273C79.1463 31.7113 83.001 28.04 86.6543 24.3867C92.4318 18.6092 97.748 12.8371 101.617 8.5127C103.553 6.34949 105.128 4.54585 106.221 3.28223C106.282 3.21171 106.34 3.14232 106.398 3.0752V64.9307ZM103.195 0.666016C102.115 1.915 100.554 3.70159 98.6357 5.8457C94.7971 10.1359 89.5346 15.8502 83.8262 21.5586C78.1089 27.2758 71.9855 32.9462 66.4229 37.1738C63.6404 39.2885 61.0414 41.0082 58.7373 42.1914C56.3944 43.3945 54.5413 43.9453 53.1992 43.9453C51.8571 43.9453 50.0039 43.3945 47.6611 42.1914C45.3572 41.0083 42.7588 39.2883 39.9766 37.1738C34.414 32.9463 28.2904 27.2757 22.5732 21.5586C16.8648 15.8501 11.6013 10.1359 7.7627 5.8457C5.84441 3.70174 4.28404 1.91498 3.2041 0.666016C2.99457 0.423691 2.80437 0.200502 2.63184 0H103.768C103.595 0.200569 103.405 0.42366 103.195 0.666016Z" fill="#E0E1F5"/>
</svg>
