<svg width="46" height="46" viewBox="0 0 46 46" fill="none" xmlns="http://www.w3.org/2000/svg">
<path d="M43.24 23C43.24 11.8218 34.1782 2.76 23 2.76C11.8218 2.76 2.76 11.8218 2.76 23C2.76 34.1782 11.8218 43.24 23 43.24V45C10.8497 45 1 35.1503 1 23C1 10.8497 10.8497 1 23 1C35.1503 1 45 10.8497 45 23C45 35.1503 35.1503 45 23 45V43.24C34.1782 43.24 43.24 34.1782 43.24 23Z" fill="#A3A6E1"/>
<path d="M23 43.24C11.8218 43.24 2.76 34.1782 2.76 23C2.76 11.8218 11.8218 2.76 23 2.76C34.1782 2.76 43.24 11.8218 43.24 23C43.24 34.1782 34.1782 43.24 23 43.24ZM23 43.24V45M23 43.24V45M23 45C10.8497 45 1 35.1503 1 23C1 10.8497 10.8497 1 23 1C35.1503 1 45 10.8497 45 23C45 35.1503 35.1503 45 23 45Z" stroke="#A3A6E1" stroke-width="2"/>
<path d="M23.0298 6.28027C23.5158 6.28029 23.9097 6.67416 23.9097 7.16016V22.4785L37.1577 30.1279C37.5786 30.3709 37.7229 30.9092 37.48 31.3301C37.237 31.7509 36.6987 31.8952 36.2778 31.6523L22.7104 23.8193C22.5899 23.7723 22.483 23.6993 22.395 23.6074C22.1615 23.3861 22.0674 23.0539 22.1499 22.7441V7.16016C22.1499 6.67415 22.5438 6.28027 23.0298 6.28027Z" fill="#A3A6E1"/>
<path d="M23.0298 6.28027L23.0298 5.53027H23.0298V6.28027ZM23.9097 22.4785H23.1597V22.9115L23.5346 23.128L23.9097 22.4785ZM37.1577 30.1279L36.7827 30.7774L36.7827 30.7774L37.1577 30.1279ZM37.48 31.3301L38.1295 31.7051L38.1295 31.705L37.48 31.3301ZM36.2778 31.6523L35.9028 32.3019L35.903 32.3019L36.2778 31.6523ZM22.7104 23.8193L23.0854 23.1698L23.0361 23.1413L22.983 23.1206L22.7104 23.8193ZM22.395 23.6074L22.9368 23.0888L22.9241 23.0756L22.9109 23.063L22.395 23.6074ZM22.1499 22.7441L22.8746 22.9373L22.8999 22.8424V22.7441H22.1499ZM23.0298 6.28027L23.0298 7.03027C23.1016 7.03028 23.1597 7.0884 23.1597 7.16016H23.9097H24.6597C24.6597 6.25992 23.93 5.53031 23.0298 5.53027L23.0298 6.28027ZM23.9097 7.16016H23.1597V22.4785H23.9097H24.6597V7.16016H23.9097ZM23.9097 22.4785L23.5346 23.128L36.7827 30.7774L37.1577 30.1279L37.5327 29.4784L24.2847 21.829L23.9097 22.4785ZM37.1577 30.1279L36.7827 30.7774C36.845 30.8134 36.8662 30.8931 36.8304 30.9552L37.48 31.3301L38.1295 31.705C38.5796 30.9253 38.3122 29.9284 37.5327 29.4784L37.1577 30.1279ZM37.48 31.3301L36.8305 30.9551C36.7946 31.0173 36.7148 31.0386 36.6527 31.0027L36.2778 31.6523L35.903 32.3019C36.6826 32.7518 37.6795 32.4846 38.1295 31.7051L37.48 31.3301ZM36.2778 31.6523L36.6528 31.0028L23.0854 23.1698L22.7104 23.8193L22.3355 24.4689L35.9028 32.3019L36.2778 31.6523ZM22.7104 23.8193L22.983 23.1206C22.9679 23.1147 22.952 23.1047 22.9368 23.0888L22.395 23.6074L21.8532 24.126C22.0139 24.2939 22.2118 24.4299 22.4379 24.5181L22.7104 23.8193ZM22.395 23.6074L22.9109 23.063C22.8764 23.0303 22.863 22.9809 22.8746 22.9373L22.1499 22.7441L21.4252 22.551C21.2717 23.1269 21.4466 23.742 21.8792 24.1519L22.395 23.6074ZM22.1499 22.7441H22.8999V7.16016H22.1499H21.3999V22.7441H22.1499ZM22.1499 7.16016H22.8999C22.8999 7.08836 22.958 7.03027 23.0298 7.03027V6.28027V5.53027C22.1296 5.53027 21.3999 6.25993 21.3999 7.16016H22.1499Z" fill="#A3A6E1"/>
</svg>
