<svg width="104" height="14" viewBox="0 0 104 14" fill="none" xmlns="http://www.w3.org/2000/svg">
<g filter="url(#filter0_dd_376_6801)">
<path d="M1 1H2.11607V2.11607H1V1ZM2.11607 1H3.23214V2.11607H2.11607V1ZM3.23214 1H4.34821V2.11607H3.23214V1ZM4.34821 1H5.46429V2.11607H4.34821V1ZM5.46429 1H6.58036V2.11607H5.46429V1ZM6.58036 1H7.69643V2.11607H6.58036V1ZM6.58036 2.11607H7.69643V3.23214H6.58036V2.11607ZM5.46429 2.11607H6.58036V3.23214H5.46429V2.11607ZM4.34821 2.11607H5.46429V3.23214H4.34821V2.11607ZM3.23214 2.11607H4.34821V3.23214H3.23214V2.11607ZM2.11607 2.11607H3.23214V3.23214H2.11607V2.11607ZM1 2.11607H2.11607V3.23214H1V2.11607ZM7.69643 2.11607H8.8125V3.23214H7.69643V2.11607ZM6.58036 3.23214H7.69643V4.34821H6.58036V3.23214ZM7.69643 3.23214H8.8125V4.34821H7.69643V3.23214ZM7.69643 4.34821H8.8125V5.46429H7.69643V4.34821ZM7.69643 5.46429H8.8125V6.58036H7.69643V5.46429ZM6.58036 5.46429H7.69643V6.58036H6.58036V5.46429ZM6.58036 4.34821H7.69643V5.46429H6.58036V4.34821ZM6.58036 6.58036H7.69643V7.69643H6.58036V6.58036ZM6.58036 7.69643H7.69643V8.8125H6.58036V7.69643ZM5.46429 7.69643H6.58036V8.8125H5.46429V7.69643ZM5.46429 6.58036H6.58036V7.69643H5.46429V6.58036ZM4.34821 6.58036H5.46429V7.69643H4.34821V6.58036ZM4.34821 7.69643H5.46429V8.8125H4.34821V7.69643ZM3.23214 7.69643H4.34821V8.8125H3.23214V7.69643ZM3.23214 6.58036H4.34821V7.69643H3.23214V6.58036ZM2.11607 6.58036H3.23214V7.69643H2.11607V6.58036ZM1 6.58036H2.11607V7.69643H1V6.58036ZM1 7.69643H2.11607V8.8125H1V7.69643ZM2.11607 7.69643H3.23214V8.8125H2.11607V7.69643ZM1 3.23214H2.11607V4.34821H1V3.23214ZM2.11607 3.23214H3.23214V4.34821H2.11607V3.23214ZM2.11607 4.34821H3.23214V5.46429H2.11607V4.34821ZM2.11607 5.46429H3.23214V6.58036H2.11607V5.46429ZM1 4.34821H2.11607V5.46429H1V4.34821ZM1 5.46429H2.11607V6.58036H1V5.46429ZM1 8.8125H2.11607V9.92857H1V8.8125ZM2.11607 8.8125H3.23214V9.92857H2.11607V8.8125ZM2.11607 9.92857H3.23214V11.0446H2.11607V9.92857ZM2.11607 11.0446H3.23214V12.1607H2.11607V11.0446ZM1 11.0446H2.11607V12.1607H1V11.0446ZM1 9.92857H2.11607V11.0446H1V9.92857ZM7.69643 6.58036H8.8125V7.69643H7.69643V6.58036Z" fill="#FFC933"/>
<path d="M16.6279 12.1607H15.5118V11.0446H16.6279V12.1607ZM16.6279 11.0446H15.5118V9.92857H16.6279V11.0446ZM15.5118 11.0446H14.3958V9.92857H15.5118V11.0446ZM14.3958 12.1607H13.2797V11.0446H14.3958V12.1607ZM13.2797 12.1607H12.1636V11.0446H13.2797V12.1607ZM12.1636 12.1607H11.0475V11.0446H12.1636V12.1607ZM12.1636 11.0446H11.0475V9.92857H12.1636V11.0446ZM13.2797 11.0446H12.1636V9.92857H13.2797V11.0446ZM11.0475 11.0446H9.93148V9.92857H11.0475V11.0446ZM11.0475 9.92857H9.93148V8.8125H11.0475V9.92857ZM11.0475 5.46429H9.93148V4.34821H11.0475V5.46429ZM12.1636 5.46429H11.0475V4.34821H12.1636V5.46429ZM12.1636 9.92857H11.0475V8.8125H12.1636V9.92857ZM13.2797 5.46429H12.1636V4.34821H13.2797V5.46429ZM12.1636 4.34821H11.0475V3.23214H12.1636V4.34821ZM13.2797 4.34821H12.1636V3.23214H13.2797V4.34821ZM14.3958 4.34821H13.2797V3.23214H14.3958V4.34821ZM15.5118 4.34821H14.3958V3.23214H15.5118V4.34821ZM16.6279 4.34821H15.5118V3.23214H16.6279V4.34821ZM16.6279 5.46429H15.5118V4.34821H16.6279V5.46429ZM15.5118 5.46429H14.3958V4.34821H15.5118V5.46429ZM16.6279 6.58036H15.5118V5.46429H16.6279V6.58036ZM17.744 5.46429H16.6279V4.34821H17.744V5.46429ZM17.744 6.58036H16.6279V5.46429H17.744V6.58036ZM17.744 7.69643H16.6279V6.58036H17.744V7.69643ZM17.744 8.8125H16.6279V7.69643H17.744V8.8125ZM17.744 9.92857H16.6279V8.8125H17.744V9.92857ZM17.744 11.0446H16.6279V9.92857H17.744V11.0446ZM16.6279 9.92857H15.5118V8.8125H16.6279V9.92857ZM16.6279 8.8125H15.5118V7.69643H16.6279V8.8125ZM16.6279 7.69643H15.5118V6.58036H16.6279V7.69643ZM14.3958 5.46429H13.2797V4.34821H14.3958V5.46429ZM14.3958 11.0446H13.2797V9.92857H14.3958V11.0446ZM16.6279 11.0446H17.744V12.1607H16.6279V11.0446ZM14.3958 6.58036H15.5118V7.69643H14.3958V6.58036ZM13.2797 6.58036H14.3958V7.69643H13.2797V6.58036ZM12.1636 6.58036H13.2797V7.69643H12.1636V6.58036ZM11.0475 6.58036H12.1636V7.69643H11.0475V6.58036ZM9.93148 7.69643H11.0475V8.8125H9.93148V7.69643ZM11.0475 7.69643H12.1636V8.8125H11.0475V7.69643ZM14.3958 7.69643H15.5118V8.8125H14.3958V7.69643ZM13.2797 7.69643H14.3958V8.8125H13.2797V7.69643ZM12.1636 7.69643H13.2797V8.8125H12.1636V7.69643Z" fill="#FFC933"/>
<path d="M18.863 4.34821H19.979V5.46429H18.863V4.34821ZM18.863 3.23214H19.979V4.34821H18.863V3.23214ZM19.979 3.23214H21.0951V4.34821H19.979V3.23214ZM19.979 4.34821H21.0951V5.46429H19.979V4.34821ZM19.979 5.46429H21.0951V6.58036H19.979V5.46429ZM19.979 6.58036H21.0951V7.69643H19.979V6.58036ZM19.979 7.69643H21.0951V8.8125H19.979V7.69643ZM18.863 7.69643H19.979V8.8125H18.863V7.69643ZM18.863 6.58036H19.979V7.69643H18.863V6.58036ZM18.863 5.46429H19.979V6.58036H18.863V5.46429ZM18.863 8.8125H19.979V9.92857H18.863V8.8125ZM19.979 8.8125H21.0951V9.92857H19.979V8.8125ZM19.979 9.92857H21.0951V11.0446H19.979V9.92857ZM19.979 11.0446H21.0951V12.1607H19.979V11.0446ZM18.863 11.0446H19.979V12.1607H18.863V11.0446ZM18.863 9.92857H19.979V11.0446H18.863V9.92857ZM24.4433 11.0446H25.5594V12.1607H24.4433V11.0446ZM25.5594 11.0446H26.6755V12.1607H25.5594V11.0446ZM25.5594 9.92857H26.6755V11.0446H25.5594V9.92857ZM25.5594 8.8125H26.6755V9.92857H25.5594V8.8125ZM25.5594 7.69643H26.6755V8.8125H25.5594V7.69643ZM25.5594 6.58036H26.6755V7.69643H25.5594V6.58036ZM25.5594 5.46429H26.6755V6.58036H25.5594V5.46429ZM25.5594 4.34821H26.6755V5.46429H25.5594V4.34821ZM24.4433 6.58036H25.5594V7.69643H24.4433V6.58036ZM24.4433 7.69643H25.5594V8.8125H24.4433V7.69643ZM24.4433 8.8125H25.5594V9.92857H24.4433V8.8125ZM24.4433 9.92857H25.5594V11.0446H24.4433V9.92857ZM24.4433 5.46429H25.5594V6.58036H24.4433V5.46429ZM21.0951 4.34821H22.2112V5.46429H21.0951V4.34821ZM22.2112 4.34821H23.3272V5.46429H22.2112V4.34821ZM23.3272 4.34821H24.4433V5.46429H23.3272V4.34821ZM23.3272 3.23214H24.4433V4.34821H23.3272V3.23214ZM24.4433 3.23214H25.5594V4.34821H24.4433V3.23214ZM24.4433 4.34821H25.5594V5.46429H24.4433V4.34821ZM22.2112 3.23214H23.3272V4.34821H22.2112V3.23214Z" fill="#FFC933"/>
<path d="M35.6069 4.34821V5.46429H34.4909V4.34821H35.6069ZM35.6069 3.23214V4.34821H34.4909V3.23214H35.6069ZM34.4909 3.23214V4.34821H33.3748V3.23214H34.4909ZM34.4909 4.34821V5.46429H33.3748V4.34821H34.4909ZM34.4909 5.46429V6.58036H33.3748V5.46429H34.4909ZM34.4909 6.58036V7.69643H33.3748V6.58036H34.4909ZM34.4909 7.69643V8.8125H33.3748V7.69643H34.4909ZM35.6069 7.69643V8.8125H34.4909V7.69643H35.6069ZM35.6069 6.58036V7.69643H34.4909V6.58036H35.6069ZM35.6069 5.46429V6.58036H34.4909V5.46429H35.6069ZM35.6069 8.8125V9.92857H34.4909V8.8125H35.6069ZM34.4909 8.8125V9.92857H33.3748V8.8125H34.4909ZM34.4909 9.92857V11.0446H33.3748V9.92857H34.4909ZM34.4909 11.0446V12.1607H33.3748V11.0446H34.4909ZM35.6069 11.0446V12.1607H34.4909V11.0446H35.6069ZM35.6069 9.92857V11.0446H34.4909V9.92857H35.6069ZM30.0266 11.0446V12.1607H28.9105V11.0446H30.0266ZM28.9105 9.92857V11.0446H27.7944V9.92857H28.9105ZM28.9105 8.8125V9.92857H27.7944V8.8125H28.9105ZM28.9105 7.69643V8.8125H27.7944V7.69643H28.9105ZM28.9105 6.58036V7.69643H27.7944V6.58036H28.9105ZM28.9105 5.46429V6.58036H27.7944V5.46429H28.9105ZM28.9105 4.34821V5.46429H27.7944V4.34821H28.9105ZM30.0266 6.58036V7.69643H28.9105V6.58036H30.0266ZM30.0266 7.69643V8.8125H28.9105V7.69643H30.0266ZM30.0266 8.8125V9.92857H28.9105V8.8125H30.0266ZM30.0266 9.92857V11.0446H28.9105V9.92857H30.0266ZM30.0266 5.46429V6.58036H28.9105V5.46429H30.0266ZM31.1426 4.34821V5.46429H30.0266V4.34821H31.1426ZM31.1426 3.23214V4.34821H30.0266V3.23214H31.1426ZM30.0266 3.23214V4.34821H28.9105V3.23214H30.0266ZM30.0266 4.34821V5.46429H28.9105V4.34821H30.0266ZM32.2587 3.23214V4.34821H31.1426V3.23214H32.2587ZM35.6069 1V2.11607H34.4909V1H35.6069ZM34.4909 1V2.11607H33.3748V1H34.4909ZM34.4909 2.11607V3.23214H33.3748V2.11607H34.4909ZM35.6069 2.11607V3.23214H34.4909V2.11607H35.6069ZM32.2587 11.0446V12.1607H31.1426V11.0446H32.2587ZM31.1426 11.0446V12.1607H30.0266V11.0446H31.1426ZM31.1426 9.92857V11.0446H30.0266V9.92857H31.1426ZM32.2587 9.92857V11.0446H31.1426V9.92857H32.2587ZM33.3748 9.92857V11.0446H32.2587V9.92857H33.3748ZM33.3748 3.23214V4.34821H32.2587V3.23214H33.3748ZM33.3748 4.34821V5.46429H32.2587V4.34821H33.3748ZM32.2587 4.34821V5.46429H31.1426V4.34821H32.2587Z" fill="#FFC933"/>
<path d="M43.4223 12.1607H42.3063V11.0446H43.4223V12.1607ZM43.4223 11.0446H42.3063V9.92857H43.4223V11.0446ZM42.3063 11.0446H41.1902V9.92857H42.3063V11.0446ZM41.1902 12.1607H40.0741V11.0446H41.1902V12.1607ZM40.0741 12.1607H38.9581V11.0446H40.0741V12.1607ZM38.9581 12.1607H37.842V11.0446H38.9581V12.1607ZM38.9581 11.0446H37.842V9.92857H38.9581V11.0446ZM40.0741 11.0446H38.9581V9.92857H40.0741V11.0446ZM37.842 11.0446H36.7259V9.92857H37.842V11.0446ZM37.842 9.92857H36.7259V8.8125H37.842V9.92857ZM37.842 5.46429H36.7259V4.34821H37.842V5.46429ZM38.9581 5.46429H37.842V4.34821H38.9581V5.46429ZM38.9581 9.92857H37.842V8.8125H38.9581V9.92857ZM40.0741 5.46429H38.9581V4.34821H40.0741V5.46429ZM38.9581 4.34821H37.842V3.23214H38.9581V4.34821ZM40.0741 4.34821H38.9581V3.23214H40.0741V4.34821ZM41.1902 4.34821H40.0741V3.23214H41.1902V4.34821ZM42.3063 4.34821H41.1902V3.23214H42.3063V4.34821ZM43.4223 4.34821H42.3063V3.23214H43.4223V4.34821ZM43.4223 5.46429H42.3063V4.34821H43.4223V5.46429ZM42.3063 5.46429H41.1902V4.34821H42.3063V5.46429ZM43.4223 6.58036H42.3063V5.46429H43.4223V6.58036ZM44.5384 5.46429H43.4223V4.34821H44.5384V5.46429ZM44.5384 6.58036H43.4223V5.46429H44.5384V6.58036ZM44.5384 7.69643H43.4223V6.58036H44.5384V7.69643ZM44.5384 8.8125H43.4223V7.69643H44.5384V8.8125ZM44.5384 9.92857H43.4223V8.8125H44.5384V9.92857ZM44.5384 11.0446H43.4223V9.92857H44.5384V11.0446ZM43.4223 9.92857H42.3063V8.8125H43.4223V9.92857ZM43.4223 8.8125H42.3063V7.69643H43.4223V8.8125ZM43.4223 7.69643H42.3063V6.58036H43.4223V7.69643ZM41.1902 5.46429H40.0741V4.34821H41.1902V5.46429ZM41.1902 11.0446H40.0741V9.92857H41.1902V11.0446ZM43.4223 11.0446H44.5384V12.1607H43.4223V11.0446ZM41.1902 6.58036H42.3063V7.69643H41.1902V6.58036ZM40.0741 6.58036H41.1902V7.69643H40.0741V6.58036ZM38.9581 6.58036H40.0741V7.69643H38.9581V6.58036ZM37.842 6.58036H38.9581V7.69643H37.842V6.58036ZM36.7259 7.69643H37.842V8.8125H36.7259V7.69643ZM37.842 7.69643H38.9581V8.8125H37.842V7.69643ZM41.1902 7.69643H42.3063V8.8125H41.1902V7.69643ZM40.0741 7.69643H41.1902V8.8125H40.0741V7.69643ZM38.9581 7.69643H40.0741V8.8125H38.9581V7.69643Z" fill="#FFC933"/>
<path d="M45.6574 4.34821H46.7735V5.46429H45.6574V4.34821ZM45.6574 3.23214H46.7735V4.34821H45.6574V3.23214ZM46.7735 3.23214H47.8895V4.34821H46.7735V3.23214ZM46.7735 4.34821H47.8895V5.46429H46.7735V4.34821ZM46.7735 5.46429H47.8895V6.58036H46.7735V5.46429ZM46.7735 6.58036H47.8895V7.69643H46.7735V6.58036ZM46.7735 7.69643H47.8895V8.8125H46.7735V7.69643ZM45.6574 7.69643H46.7735V8.8125H45.6574V7.69643ZM45.6574 6.58036H46.7735V7.69643H45.6574V6.58036ZM45.6574 5.46429H46.7735V6.58036H45.6574V5.46429ZM45.6574 8.8125H46.7735V9.92857H45.6574V8.8125ZM46.7735 8.8125H47.8895V9.92857H46.7735V8.8125ZM46.7735 9.92857H47.8895V11.0446H46.7735V9.92857ZM46.7735 11.0446H47.8895V12.1607H46.7735V11.0446ZM45.6574 11.0446H46.7735V12.1607H45.6574V11.0446ZM45.6574 9.92857H46.7735V11.0446H45.6574V9.92857ZM50.1217 11.0446H51.2377V12.1607H50.1217V11.0446ZM51.2377 11.0446H52.3538V12.1607H51.2377V11.0446ZM51.2377 9.92857H52.3538V11.0446H51.2377V9.92857ZM51.2377 8.8125H52.3538V9.92857H51.2377V8.8125ZM51.2377 7.69643H52.3538V8.8125H51.2377V7.69643ZM51.2377 6.58036H52.3538V7.69643H51.2377V6.58036ZM51.2377 5.46429H52.3538V6.58036H51.2377V5.46429ZM51.2377 4.34821H52.3538V5.46429H51.2377V4.34821ZM50.1217 6.58036H51.2377V7.69643H50.1217V6.58036ZM50.1217 7.69643H51.2377V8.8125H50.1217V7.69643ZM50.1217 8.8125H51.2377V9.92857H50.1217V8.8125ZM50.1217 9.92857H51.2377V11.0446H50.1217V9.92857ZM50.1217 5.46429H51.2377V6.58036H50.1217V5.46429ZM47.8895 4.34821H49.0056V5.46429H47.8895V4.34821ZM49.0056 4.34821H50.1217V5.46429H49.0056V4.34821ZM50.1217 3.23214H51.2377V4.34821H50.1217V3.23214ZM50.1217 4.34821H51.2377V5.46429H50.1217V4.34821ZM49.0056 3.23214H50.1217V4.34821H49.0056V3.23214ZM54.586 11.0446H55.702V12.1607H54.586V11.0446ZM55.702 11.0446H56.8181V12.1607H55.702V11.0446ZM55.702 9.92857H56.8181V11.0446H55.702V9.92857ZM55.702 8.8125H56.8181V9.92857H55.702V8.8125ZM55.702 7.69643H56.8181V8.8125H55.702V7.69643ZM55.702 6.58036H56.8181V7.69643H55.702V6.58036ZM55.702 5.46429H56.8181V6.58036H55.702V5.46429ZM55.702 4.34821H56.8181V5.46429H55.702V4.34821ZM54.586 6.58036H55.702V7.69643H54.586V6.58036ZM54.586 7.69643H55.702V8.8125H54.586V7.69643ZM54.586 8.8125H55.702V9.92857H54.586V8.8125ZM54.586 9.92857H55.702V11.0446H54.586V9.92857ZM54.586 5.46429H55.702V6.58036H54.586V5.46429ZM52.3538 4.34821H53.4699V5.46429H52.3538V4.34821ZM53.4699 4.34821H54.586V5.46429H53.4699V4.34821ZM54.586 3.23214H55.702V4.34821H54.586V3.23214ZM54.586 4.34821H55.702V5.46429H54.586V4.34821ZM53.4699 3.23214H54.586V4.34821H53.4699V3.23214Z" fill="#FFC933"/>
<path d="M60.1576 3.23214H61.2737V4.34821H60.1576V3.23214ZM59.0415 3.23214H60.1576V4.34821H59.0415V3.23214ZM59.0415 4.34821H60.1576V5.46429H59.0415V4.34821ZM60.1576 4.34821H61.2737V5.46429H60.1576V4.34821ZM61.2737 3.23214H62.3897V4.34821H61.2737V3.23214ZM62.3897 3.23214H63.5058V4.34821H62.3897V3.23214ZM63.5058 3.23214H64.6219V4.34821H63.5058V3.23214ZM63.5058 4.34821H64.6219V5.46429H63.5058V4.34821ZM62.3897 4.34821H63.5058V5.46429H62.3897V4.34821ZM63.5058 6.58036H64.6219V7.69643H63.5058V6.58036ZM64.6219 4.34821H65.738V5.46429H64.6219V4.34821ZM64.6219 5.46429H65.738V6.58036H64.6219V5.46429ZM64.6219 6.58036H65.738V7.69643H64.6219V6.58036ZM64.6219 7.69643H65.738V8.8125H64.6219V7.69643ZM64.6219 8.8125H65.738V9.92857H64.6219V8.8125ZM64.6219 9.92857H65.738V11.0446H64.6219V9.92857ZM63.5058 9.92857H64.6219V11.0446H63.5058V9.92857ZM63.5058 8.8125H64.6219V9.92857H63.5058V8.8125ZM63.5058 7.69643H64.6219V8.8125H63.5058V7.69643ZM63.5058 5.46429H64.6219V6.58036H63.5058V5.46429ZM62.3897 9.92857H63.5058V11.0446H62.3897V9.92857ZM63.5058 11.0446H64.6219V12.1607H63.5058V11.0446ZM62.3897 11.0446H63.5058V12.1607H62.3897V11.0446ZM61.2737 11.0446H62.3897V12.1607H61.2737V11.0446ZM60.1576 11.0446H61.2737V12.1607H60.1576V11.0446ZM59.0415 11.0446H60.1576V12.1607H59.0415V11.0446ZM59.0415 9.92857H60.1576V11.0446H59.0415V9.92857ZM60.1576 9.92857H61.2737V11.0446H60.1576V9.92857ZM59.0415 8.8125H60.1576V9.92857H59.0415V8.8125ZM57.9255 9.92857H59.0415V11.0446H57.9255V9.92857ZM57.9255 8.8125H59.0415V9.92857H57.9255V8.8125ZM57.9255 7.69643H59.0415V8.8125H57.9255V7.69643ZM57.9255 6.58036H59.0415V7.69643H57.9255V6.58036ZM57.9255 5.46429H59.0415V6.58036H57.9255V5.46429ZM57.9255 4.34821H59.0415V5.46429H57.9255V4.34821ZM59.0415 5.46429H60.1576V6.58036H59.0415V5.46429ZM59.0415 6.58036H60.1576V7.69643H59.0415V6.58036ZM59.0415 7.69643H60.1576V8.8125H59.0415V7.69643ZM61.2737 9.92857H62.3897V11.0446H61.2737V9.92857ZM61.2737 4.34821H62.3897V5.46429H61.2737V4.34821Z" fill="#FFC933"/>
<path d="M66.8569 4.34821H67.973V5.46429H66.8569V4.34821ZM66.8569 3.23214H67.973V4.34821H66.8569V3.23214ZM67.973 3.23214H69.0891V4.34821H67.973V3.23214ZM67.973 4.34821H69.0891V5.46429H67.973V4.34821ZM67.973 5.46429H69.0891V6.58036H67.973V5.46429ZM67.973 6.58036H69.0891V7.69643H67.973V6.58036ZM67.973 7.69643H69.0891V8.8125H67.973V7.69643ZM66.8569 7.69643H67.973V8.8125H66.8569V7.69643ZM66.8569 6.58036H67.973V7.69643H66.8569V6.58036ZM66.8569 5.46429H67.973V6.58036H66.8569V5.46429ZM66.8569 8.8125H67.973V9.92857H66.8569V8.8125ZM67.973 8.8125H69.0891V9.92857H67.973V8.8125ZM67.973 9.92857H69.0891V11.0446H67.973V9.92857ZM67.973 11.0446H69.0891V12.1607H67.973V11.0446ZM66.8569 11.0446H67.973V12.1607H66.8569V11.0446ZM66.8569 9.92857H67.973V11.0446H66.8569V9.92857ZM72.4373 11.0446H73.5534V12.1607H72.4373V11.0446ZM73.5534 11.0446H74.6694V12.1607H73.5534V11.0446ZM73.5534 9.92857H74.6694V11.0446H73.5534V9.92857ZM73.5534 8.8125H74.6694V9.92857H73.5534V8.8125ZM73.5534 7.69643H74.6694V8.8125H73.5534V7.69643ZM73.5534 6.58036H74.6694V7.69643H73.5534V6.58036ZM73.5534 5.46429H74.6694V6.58036H73.5534V5.46429ZM73.5534 4.34821H74.6694V5.46429H73.5534V4.34821ZM72.4373 6.58036H73.5534V7.69643H72.4373V6.58036ZM72.4373 7.69643H73.5534V8.8125H72.4373V7.69643ZM72.4373 8.8125H73.5534V9.92857H72.4373V8.8125ZM72.4373 9.92857H73.5534V11.0446H72.4373V9.92857ZM72.4373 5.46429H73.5534V6.58036H72.4373V5.46429ZM69.0891 4.34821H70.2051V5.46429H69.0891V4.34821ZM70.2051 4.34821H71.3212V5.46429H70.2051V4.34821ZM71.3212 4.34821H72.4373V5.46429H71.3212V4.34821ZM71.3212 3.23214H72.4373V4.34821H71.3212V3.23214ZM72.4373 3.23214H73.5534V4.34821H72.4373V3.23214ZM72.4373 4.34821H73.5534V5.46429H72.4373V4.34821ZM70.2051 3.23214H71.3212V4.34821H70.2051V3.23214Z" fill="#FFC933"/>
<path d="M75.7884 1H78.0206V3.23214H75.7884V1ZM75.7884 4.34821H78.0206V12.1607H75.7884V4.34821Z" fill="#FFC933"/>
<path d="M86.9578 11.0446H85.8418V9.92857H86.9578V11.0446ZM86.9578 12.1607H85.8418V11.0446H86.9578V12.1607ZM85.8418 12.1607H84.7257V11.0446H85.8418V12.1607ZM85.8418 11.0446H84.7257V9.92857H85.8418V11.0446ZM85.8418 9.92857H84.7257V8.8125H85.8418V9.92857ZM85.8418 8.8125H84.7257V7.69643H85.8418V8.8125ZM85.8418 7.69643H84.7257V6.58036H85.8418V7.69643ZM86.9578 7.69643H85.8418V6.58036H86.9578V7.69643ZM86.9578 8.8125H85.8418V7.69643H86.9578V8.8125ZM86.9578 9.92857H85.8418V8.8125H86.9578V9.92857ZM86.9578 6.58036H85.8418V5.46429H86.9578V6.58036ZM85.8418 6.58036H84.7257V5.46429H85.8418V6.58036ZM85.8418 5.46429H84.7257V4.34821H85.8418V5.46429ZM85.8418 4.34821H84.7257V3.23214H85.8418V4.34821ZM86.9578 4.34821H85.8418V3.23214H86.9578V4.34821ZM86.9578 5.46429H85.8418V4.34821H86.9578V5.46429ZM81.3775 4.34821H80.2614V3.23214H81.3775V4.34821ZM80.2614 4.34821H79.1453V3.23214H80.2614V4.34821ZM80.2614 5.46429H79.1453V4.34821H80.2614V5.46429ZM80.2614 6.58036H79.1453V5.46429H80.2614V6.58036ZM80.2614 7.69643H79.1453V6.58036H80.2614V7.69643ZM80.2614 8.8125H79.1453V7.69643H80.2614V8.8125ZM80.2614 9.92857H79.1453V8.8125H80.2614V9.92857ZM80.2614 11.0446H79.1453V9.92857H80.2614V11.0446ZM81.3775 8.8125H80.2614V7.69643H81.3775V8.8125ZM81.3775 7.69643H80.2614V6.58036H81.3775V7.69643ZM81.3775 6.58036H80.2614V5.46429H81.3775V6.58036ZM81.3775 5.46429H80.2614V4.34821H81.3775V5.46429ZM81.3775 9.92857H80.2614V8.8125H81.3775V9.92857ZM84.7257 11.0446H83.6096V9.92857H84.7257V11.0446ZM83.6096 11.0446H82.4936V9.92857H83.6096V11.0446ZM82.4936 11.0446H81.3775V9.92857H82.4936V11.0446ZM82.4936 12.1607H81.3775V11.0446H82.4936V12.1607ZM81.3775 12.1607H80.2614V11.0446H81.3775V12.1607ZM81.3775 11.0446H80.2614V9.92857H81.3775V11.0446ZM83.6096 12.1607H82.4936V11.0446H83.6096V12.1607Z" fill="#FFC933"/>
<path d="M88.0768 4.34821H89.1929V5.46429H88.0768V4.34821ZM88.0768 3.23214H89.1929V4.34821H88.0768V3.23214ZM89.1929 3.23214H90.309V4.34821H89.1929V3.23214ZM89.1929 4.34821H90.309V5.46429H89.1929V4.34821ZM89.1929 5.46429H90.309V6.58036H89.1929V5.46429ZM89.1929 6.58036H90.309V7.69643H89.1929V6.58036ZM89.1929 7.69643H90.309V8.8125H89.1929V7.69643ZM88.0768 7.69643H89.1929V8.8125H88.0768V7.69643ZM88.0768 6.58036H89.1929V7.69643H88.0768V6.58036ZM88.0768 5.46429H89.1929V6.58036H88.0768V5.46429ZM88.0768 8.8125H89.1929V9.92857H88.0768V8.8125ZM89.1929 8.8125H90.309V9.92857H89.1929V8.8125ZM89.1929 9.92857H90.309V11.0446H89.1929V9.92857ZM89.1929 11.0446H90.309V12.1607H89.1929V11.0446ZM88.0768 11.0446H89.1929V12.1607H88.0768V11.0446ZM88.0768 9.92857H89.1929V11.0446H88.0768V9.92857ZM92.5411 11.0446H93.6572V12.1607H92.5411V11.0446ZM93.6572 11.0446H94.7733V12.1607H93.6572V11.0446ZM93.6572 9.92857H94.7733V11.0446H93.6572V9.92857ZM93.6572 8.8125H94.7733V9.92857H93.6572V8.8125ZM93.6572 7.69643H94.7733V8.8125H93.6572V7.69643ZM93.6572 6.58036H94.7733V7.69643H93.6572V6.58036ZM93.6572 5.46429H94.7733V6.58036H93.6572V5.46429ZM93.6572 4.34821H94.7733V5.46429H93.6572V4.34821ZM92.5411 6.58036H93.6572V7.69643H92.5411V6.58036ZM92.5411 7.69643H93.6572V8.8125H92.5411V7.69643ZM92.5411 8.8125H93.6572V9.92857H92.5411V8.8125ZM92.5411 9.92857H93.6572V11.0446H92.5411V9.92857ZM92.5411 5.46429H93.6572V6.58036H92.5411V5.46429ZM90.309 4.34821H91.425V5.46429H90.309V4.34821ZM91.425 4.34821H92.5411V5.46429H91.425V4.34821ZM92.5411 3.23214H93.6572V4.34821H92.5411V3.23214ZM92.5411 4.34821H93.6572V5.46429H92.5411V4.34821ZM91.425 3.23214H92.5411V4.34821H91.425V3.23214ZM97.0054 11.0446H98.1215V12.1607H97.0054V11.0446ZM98.1215 11.0446H99.2375V12.1607H98.1215V11.0446ZM98.1215 9.92857H99.2375V11.0446H98.1215V9.92857ZM98.1215 8.8125H99.2375V9.92857H98.1215V8.8125ZM98.1215 7.69643H99.2375V8.8125H98.1215V7.69643ZM98.1215 6.58036H99.2375V7.69643H98.1215V6.58036ZM98.1215 5.46429H99.2375V6.58036H98.1215V5.46429ZM98.1215 4.34821H99.2375V5.46429H98.1215V4.34821ZM97.0054 6.58036H98.1215V7.69643H97.0054V6.58036ZM97.0054 7.69643H98.1215V8.8125H97.0054V7.69643ZM97.0054 8.8125H98.1215V9.92857H97.0054V8.8125ZM97.0054 9.92857H98.1215V11.0446H97.0054V9.92857ZM97.0054 5.46429H98.1215V6.58036H97.0054V5.46429ZM94.7733 4.34821H95.8893V5.46429H94.7733V4.34821ZM95.8893 4.34821H97.0054V5.46429H95.8893V4.34821ZM97.0054 3.23214H98.1215V4.34821H97.0054V3.23214ZM97.0054 4.34821H98.1215V5.46429H97.0054V4.34821ZM95.8893 3.23214H97.0054V4.34821H95.8893V3.23214Z" fill="#FFC933"/>
<path d="M100.345 9.92857H101.461V11.0446H100.345V9.92857ZM101.461 9.92857H102.577V11.0446H101.461V9.92857ZM101.461 11.0446H102.577V12.1607H101.461V11.0446ZM100.345 11.0446H101.461V12.1607H100.345V11.0446ZM100.345 1H101.461V2.11607H100.345V1ZM101.461 1H102.577V2.11607H101.461V1ZM101.461 2.11607H102.577V3.23214H101.461V2.11607ZM101.461 3.23214H102.577V4.34821H101.461V3.23214ZM101.461 4.34821H102.577V5.46429H101.461V4.34821ZM101.461 5.46429H102.577V6.58036H101.461V5.46429ZM101.461 6.58036H102.577V7.69643H101.461V6.58036ZM100.345 6.58036H101.461V7.69643H100.345V6.58036ZM100.345 5.46429H101.461V6.58036H100.345V5.46429ZM100.345 4.34821H101.461V5.46429H100.345V4.34821ZM100.345 3.23214H101.461V4.34821H100.345V3.23214ZM100.345 2.11607H101.461V3.23214H100.345V2.11607ZM100.345 7.69643H101.461V8.8125H100.345V7.69643ZM101.461 7.69643H102.577V8.8125H101.461V7.69643Z" fill="#FFC933"/>
</g>
<defs>
<filter id="filter0_dd_376_6801" x="0" y="0" width="103.577" height="13.1607" filterUnits="userSpaceOnUse" color-interpolation-filters="sRGB">
<feFlood flood-opacity="0" result="BackgroundImageFix"/>
<feColorMatrix in="SourceAlpha" type="matrix" values="0 0 0 0 0 0 0 0 0 0 0 0 0 0 0 0 0 0 127 0" result="hardAlpha"/>
<feOffset dx="0.5" dy="0.5"/>
<feGaussianBlur stdDeviation="0.25"/>
<feComposite in2="hardAlpha" operator="out"/>
<feColorMatrix type="matrix" values="0 0 0 0 1 0 0 0 0 0.180392 0 0 0 0 0 0 0 0 0.66 0"/>
<feBlend mode="normal" in2="BackgroundImageFix" result="effect1_dropShadow_376_6801"/>
<feColorMatrix in="SourceAlpha" type="matrix" values="0 0 0 0 0 0 0 0 0 0 0 0 0 0 0 0 0 0 127 0" result="hardAlpha"/>
<feOffset dx="-0.5" dy="-0.5"/>
<feGaussianBlur stdDeviation="0.25"/>
<feComposite in2="hardAlpha" operator="out"/>
<feColorMatrix type="matrix" values="0 0 0 0 1 0 0 0 0 0.180392 0 0 0 0 0 0 0 0 0.66 0"/>
<feBlend mode="normal" in2="effect1_dropShadow_376_6801" result="effect2_dropShadow_376_6801"/>
<feBlend mode="normal" in="SourceGraphic" in2="effect2_dropShadow_376_6801" result="shape"/>
</filter>
</defs>
</svg>
