<svg width="67" height="67" viewBox="0 0 67 67" fill="none" xmlns="http://www.w3.org/2000/svg">
<line y1="-0.4" x2="25.5447" y2="-0.4" transform="matrix(-0.580253 0.814437 -0.812286 -0.583259 57.209 34.855)" stroke="#171228" stroke-width="0.8"/>
<rect x="0.133511" y="0.0459711" width="1.35982" height="22.9226" rx="0.679912" transform="matrix(0.898118 -0.439755 0.436989 0.899467 55.4881 33.8244)" fill="#D5AA33"/>
<rect x="0.133511" y="0.0459711" width="1.35982" height="22.9226" rx="0.679912" transform="matrix(0.898118 -0.439755 0.436989 0.899467 55.4881 33.8244)" fill="url(#paint0_linear_329_5953)" fill-opacity="0.5" style="mix-blend-mode:darken"/>
<rect x="0.133511" y="0.0459711" width="1.35982" height="22.9226" rx="0.679912" transform="matrix(0.898118 -0.439755 0.436989 0.899467 55.4881 33.8244)" fill="url(#paint1_linear_329_5953)" fill-opacity="0.5"/>
<rect x="0.133511" y="0.0459711" width="1.35982" height="22.9226" rx="0.679912" transform="matrix(0.898118 -0.439755 0.436989 0.899467 55.4881 33.8244)" stroke="black" stroke-width="0.2"/>
<rect width="3.78876" height="6.22546" transform="matrix(-0.867653 -0.496395 -0.493856 0.869985 44.2778 57.5129)" fill="#CC2500" stroke="black" stroke-width="0.2"/>
<path d="M41.8467 61.7949C41.8467 61.7949 41.4443 61.1533 40.3449 60.5243C39.2454 59.8953 38.5594 59.9142 38.5594 59.9142L37.9157 61.0481L41.203 62.9288L41.8467 61.7949Z" fill="#FFC933" stroke="black" stroke-width="0.2"/>
<ellipse cx="1.89539" cy="0.750424" rx="1.89539" ry="0.750424" transform="matrix(-0.867653 -0.496395 -0.493856 0.869985 41.5693 62.2947)" fill="#FFC933" stroke="black" stroke-width="0.2"/>
<path d="M41.2024 55.2501C41.2024 55.2501 42.04 54.9187 43.1395 55.5477C44.239 56.1767 44.4898 57.1309 44.4898 57.1309L43.8461 58.2647C43.8461 58.2647 43.5174 57.3156 42.4992 56.7331C41.4811 56.1506 40.5588 56.384 40.5588 56.384L41.2024 55.2501Z" fill="#FFC933" stroke="black" stroke-width="0.2"/>
<path d="M41.7937 57.9194C41.7998 57.8345 41.7043 57.7811 41.6356 57.8309L41.1894 58.1546C41.1704 58.1684 41.1472 58.175 41.1238 58.1733L40.5744 58.1338C40.4899 58.1277 40.4368 58.2233 40.4865 58.2922L40.8091 58.7404C40.8228 58.7595 40.8295 58.7828 40.8278 58.8063L40.7884 59.3575C40.7823 59.4423 40.8778 59.4958 40.9465 59.4459L41.3926 59.1222C41.4116 59.1084 41.4349 59.1018 41.4583 59.1035L42.0076 59.1431C42.0922 59.1492 42.1452 59.0535 42.0956 58.9846L41.773 58.5364C41.7592 58.5174 41.7526 58.494 41.7543 58.4706L41.7937 57.9194Z" fill="#991C00"/>
<rect width="3.79372" height="6.21733" transform="matrix(-0.645078 -0.763622 -0.761707 0.648506 45.1421 54.7024)" fill="#CC2500" stroke="black" stroke-width="0.2"/>
<path d="M41.3979 57.8901C41.3979 57.8901 41.2387 57.149 40.4202 56.1801C39.6017 55.2112 38.9507 54.9931 38.9507 54.9931L37.9592 55.8372L40.4065 58.7342L41.3979 57.8901Z" fill="#FFC933" stroke="black" stroke-width="0.2"/>
<ellipse cx="1.89787" cy="0.749443" rx="1.89787" ry="0.749443" transform="matrix(-0.645078 -0.763622 -0.761707 0.648506 40.9663 58.2642)" fill="#FFC933" stroke="black" stroke-width="0.2"/>
<path d="M43.024 51.5193C43.024 51.5193 43.924 51.4957 44.7426 52.4647C45.5611 53.4336 45.4712 54.4163 45.4712 54.4163L44.4798 55.2604C44.4798 55.2604 44.4947 54.2556 43.7367 53.3583C42.9787 52.4611 42.0325 52.3634 42.0325 52.3634L43.024 51.5193Z" fill="#FFC933" stroke="black" stroke-width="0.2"/>
<path d="M42.6701 54.2301C42.7047 54.1525 42.6334 54.0697 42.5519 54.0929L42.022 54.2438C41.9994 54.2502 41.9753 54.2484 41.9539 54.2388L41.4516 54.0129C41.3742 53.9782 41.2915 54.05 41.3146 54.1318L41.4648 54.6635C41.4712 54.6861 41.4695 54.7103 41.4599 54.7318L41.2347 55.2364C41.2001 55.3141 41.2714 55.3969 41.3529 55.3736L41.8829 55.2228C41.9054 55.2163 41.9295 55.2181 41.9509 55.2277L42.4532 55.4536C42.5306 55.4884 42.6133 55.4166 42.5902 55.3347L42.44 54.8031C42.4336 54.7804 42.4354 54.7563 42.4449 54.7348L42.6701 54.2301Z" fill="#991C00"/>
<rect width="3.79573" height="6.21402" transform="matrix(-0.513387 -0.857796 -0.856553 0.516663 46.8804 52.7383)" fill="#CC2500" stroke="black" stroke-width="0.2"/>
<path d="M42.6719 55.2764C42.6719 55.2764 42.6341 54.5192 41.9823 53.4302C41.3305 52.3412 40.7232 52.0204 40.7232 52.0204L39.6089 52.6925L41.5576 55.9485L42.6719 55.2764Z" fill="#FFC933" stroke="black" stroke-width="0.2"/>
<ellipse cx="1.89887" cy="0.749044" rx="1.89887" ry="0.749044" transform="matrix(-0.513387 -0.857796 -0.856553 0.516663 42.186 55.5754)" fill="#FFC933" stroke="black" stroke-width="0.2"/>
<path d="M45.3024 49.2531C45.3024 49.2531 46.1944 49.3759 46.8462 50.4649C47.4979 51.5539 47.2511 52.5091 47.2511 52.5091L46.1368 53.1812C46.1368 53.1812 46.3132 52.1921 45.7097 51.1836C45.1061 50.1752 44.1881 49.9253 44.1881 49.9253L45.3024 49.2531Z" fill="#FFC933" stroke="black" stroke-width="0.2"/>
<path d="M44.5164 51.8707C44.5631 51.7997 44.5061 51.7065 44.4219 51.7162L43.8745 51.7791C43.8512 51.7818 43.8277 51.7762 43.8082 51.7632L43.3489 51.4589C43.2782 51.412 43.1849 51.4695 43.1945 51.554L43.2571 52.1029C43.2598 52.1263 43.2542 52.1498 43.2412 52.1695L42.9377 52.6311C42.891 52.7021 42.948 52.7953 43.0322 52.7856L43.5796 52.7227C43.6029 52.72 43.6264 52.7256 43.6459 52.7386L44.1052 53.0429C44.1759 53.0898 44.2692 53.0323 44.2596 52.9477L44.197 52.3989C44.1943 52.3755 44.1999 52.3519 44.2129 52.3323L44.5164 51.8707Z" fill="#991C00"/>
<rect width="3.79769" height="6.21079" transform="matrix(-0.307018 -0.951531 -0.951139 0.309298 48.771 50.2881)" fill="#CC2500" stroke="black" stroke-width="0.2"/>
<path d="M44.1003 51.8064C44.1003 51.8064 44.2337 51.0603 43.8438 49.8516C43.4538 48.643 42.9343 48.1928 42.9343 48.1928L41.6976 48.595L42.8636 52.2086L44.1003 51.8064Z" fill="#FFC933" stroke="black" stroke-width="0.2"/>
<ellipse cx="1.89986" cy="0.748655" rx="1.89986" ry="0.748655" transform="matrix(-0.307018 -0.951531 -0.951139 0.309298 43.5596 51.9878)" fill="#FFC933" stroke="black" stroke-width="0.2"/>
<path d="M48.0176 46.5354C48.0176 46.5354 48.8589 46.8573 49.2489 48.0659C49.6389 49.2745 49.1836 50.149 49.1836 50.149L47.9468 50.5512C47.9468 50.5512 48.3412 49.6276 47.9801 48.5084C47.619 47.3891 46.7809 46.9376 46.7809 46.9376L48.0176 46.5354Z" fill="#FFC933" stroke="black" stroke-width="0.2"/>
<path d="M46.6633 48.907C46.7248 48.8484 46.6902 48.7448 46.6061 48.7352L46.0585 48.6724C46.0352 48.6697 46.0136 48.6589 45.9975 48.6418L45.6186 48.2413C45.5603 48.1796 45.4563 48.2145 45.4467 48.2991L45.3842 48.8478C45.3816 48.8712 45.3708 48.8929 45.3538 48.9091L44.9542 49.2901C44.8927 49.3486 44.9273 49.4522 45.0114 49.4619L45.559 49.5247C45.5823 49.5273 45.6039 49.5382 45.62 49.5552L45.9989 49.9557C46.0572 50.0174 46.1612 49.9825 46.1708 49.8979L46.2333 49.3492C46.2359 49.3258 46.2467 49.3042 46.2637 49.2879L46.6633 48.907Z" fill="#991C00"/>
<rect width="3.79411" height="6.21667" transform="matrix(-0.622066 -0.782495 -0.780695 0.625502 51.4277 45.6665)" fill="#CC2500" stroke="black" stroke-width="0.2"/>
<path d="M47.5899 48.7408C47.5899 48.7408 47.4527 47.9953 46.6634 47.0023C45.874 46.0093 45.2297 45.7719 45.2297 45.7719L44.2137 46.586L46.5738 49.5548L47.5899 48.7408Z" fill="#FFC933" stroke="black" stroke-width="0.2"/>
<ellipse cx="1.89807" cy="0.749364" rx="1.89807" ry="0.749364" transform="matrix(-0.622066 -0.782495 -0.780695 0.625502 47.1479 49.1018)" fill="#FFC933" stroke="black" stroke-width="0.2"/>
<path d="M49.4048 42.4214C49.4048 42.4214 50.3051 42.4248 51.0945 43.4178C51.8839 44.4108 51.7649 45.3903 51.7649 45.3903L50.7489 46.2044C50.7489 46.2044 50.7936 45.2005 50.0626 44.2809C49.3316 43.3614 48.3887 43.2355 48.3887 43.2355L49.4048 42.4214Z" fill="#FFC933" stroke="black" stroke-width="0.2"/>
<path d="M48.9704 45.1205C49.0073 45.0439 48.9385 44.9591 48.8563 44.9798L48.3221 45.1148C48.2994 45.1205 48.2754 45.1181 48.2543 45.1078L47.7589 44.867C47.6826 44.8299 47.5977 44.8993 47.6184 44.9818L47.7528 45.5176C47.7585 45.5405 47.756 45.5646 47.7458 45.5858L47.5058 46.0835C47.4688 46.16 47.5377 46.2449 47.6198 46.2242L48.154 46.0892C48.1768 46.0834 48.2008 46.0859 48.2219 46.0962L48.7173 46.337C48.7936 46.374 48.8784 46.3047 48.8577 46.2222L48.7234 45.6863C48.7176 45.6635 48.7201 45.6394 48.7303 45.6182L48.9704 45.1205Z" fill="#991C00"/>
<mask id="mask0_329_5953" style="mask-type:alpha" maskUnits="userSpaceOnUse" x="45" y="39" width="9" height="7">
<path d="M53.3601 42.5999C53.4213 42.2161 53.4294 41.6781 53.2189 41.0593C53.0081 40.4404 52.6835 40.0481 52.4088 39.8103C52.2719 39.6918 52.1475 39.6111 52.0565 39.5605C52.0111 39.5352 51.9732 39.5173 51.9469 39.5055C51.9337 39.4996 51.9231 39.4946 51.9157 39.4916C51.9122 39.4902 51.9091 39.4894 51.907 39.4886L51.9046 39.4871L51.9037 39.4873L51.9035 39.4864L51.8698 39.4751L50.3844 39.985L50.3903 39.9887L45.4561 41.6804L45.4552 41.6806L45.4603 41.6945C45.3663 41.7498 45.295 41.8384 45.2464 41.9469C45.1859 42.0822 45.1535 42.2535 45.1444 42.4452C45.1263 42.83 45.2025 43.3208 45.3746 43.8262C45.5466 44.3312 45.7848 44.7657 46.0336 45.0587C46.1576 45.2046 46.2881 45.3195 46.4183 45.3893C46.5229 45.4452 46.6334 45.4723 46.7415 45.4584L46.7428 45.4641L46.7438 45.4639L46.7874 45.4489C46.7987 45.4461 46.8107 45.4458 46.8219 45.442C46.8337 45.4379 46.844 45.4304 46.8552 45.4253L52.8084 43.3837L52.8075 43.3799L53.1632 43.2572L53.1819 43.2209L53.183 43.2166C53.184 43.2146 53.1853 43.2113 53.187 43.2077C53.1905 43.2001 53.1954 43.1884 53.2014 43.1743C53.2135 43.1459 53.2314 43.1049 53.2497 43.052C53.2863 42.9459 53.3295 42.7916 53.3601 42.5999Z" fill="#991C00"/>
</mask>
<g mask="url(#mask0_329_5953)">
<rect width="3.79759" height="6.21095" transform="matrix(-0.322212 -0.946482 -0.946043 0.324588 52.6816 43.3213)" fill="#CC2500" stroke="black" stroke-width="0.2"/>
<path d="M48.0357 44.9149C48.0357 44.9149 48.1572 44.1667 47.7479 42.9645C47.3387 41.7623 46.8121 41.3205 46.8121 41.3205L45.5819 41.7426L46.8055 45.337L48.0357 44.9149Z" fill="#FFC933" stroke="black" stroke-width="0.2"/>
<ellipse cx="1.89981" cy="0.748674" rx="1.89981" ry="0.748674" transform="matrix(-0.322212 -0.946482 -0.946043 0.324588 47.498 45.105)" fill="#FFC933" stroke="black" stroke-width="0.2"/>
<path d="M51.8688 39.5812C51.8688 39.5812 52.7152 39.8894 53.1245 41.0916C53.5337 42.2938 53.0924 43.1755 53.0924 43.1755L51.8623 43.5976C51.8623 43.5976 52.2419 42.6677 51.8629 41.5545C51.4839 40.4412 50.6387 40.0032 50.6387 40.0032L51.8688 39.5812Z" fill="#FFC933" stroke="black" stroke-width="0.2"/>
<path d="M50.5524 41.9745C50.6129 41.9149 50.5767 41.8119 50.4924 41.8036L49.9439 41.7496C49.9205 41.7474 49.8988 41.7369 49.8824 41.7201L49.4972 41.3258C49.4378 41.265 49.3344 41.3016 49.3262 41.3863L49.2725 41.936C49.2702 41.9594 49.2598 41.9812 49.243 41.9977L48.8496 42.3851C48.7891 42.4446 48.8253 42.5477 48.9096 42.5559L49.458 42.6099C49.4814 42.6122 49.5032 42.6227 49.5196 42.6394L49.9048 43.0338C49.9641 43.0946 50.0675 43.058 50.0758 42.9733L50.1294 42.4236C50.1317 42.4002 50.1421 42.3783 50.1589 42.3618L50.5524 41.9745Z" fill="#991C00"/>
<rect width="4.69334" height="8.57424" transform="matrix(-0.221914 -0.975066 0.974688 -0.223568 45.6021 45.7583)" fill="url(#paint2_linear_329_5953)" style="mix-blend-mode:darken"/>
<rect width="4.69334" height="8.57424" transform="matrix(-0.221914 -0.975066 0.974688 -0.223568 45.6021 45.7583)" fill="url(#paint3_linear_329_5953)" style="mix-blend-mode:soft-light"/>
</g>
<mask id="mask1_329_5953" style="mask-type:alpha" maskUnits="userSpaceOnUse" x="37" y="39" width="17" height="25">
<path d="M37.7993 61.4231C37.8431 61.5649 37.9311 61.7161 38.051 61.8661C38.2912 62.1665 38.6722 62.4822 39.1344 62.7467C39.5962 63.0108 40.0605 63.1782 40.4403 63.2326C40.6298 63.2597 40.804 63.2588 40.9478 63.2245C41.0627 63.197 41.1632 63.1447 41.2351 63.0632L41.2399 63.066L41.2393 63.0641L41.2405 63.0648L41.2596 63.0304C41.2676 63.0191 41.2781 63.0095 41.2851 62.9972C41.2919 62.9851 41.2945 62.9713 41.3 62.9588L44.414 57.476L44.4092 57.4732L44.5968 57.1446L44.5824 57.0909C44.58 57.0828 44.5758 57.0708 44.5711 57.0565C44.5614 57.0272 44.547 56.9854 44.526 56.9341C44.4835 56.8303 44.4143 56.6857 44.3109 56.5218C44.1986 56.3439 44.0436 56.1434 43.836 55.9447L45.2828 54.714L45.2787 54.71L45.5668 54.4656L45.5701 54.4253L45.5711 54.425L45.5708 54.4241L45.572 54.4207C45.5721 54.4184 45.5711 54.4148 45.5713 54.4108C45.5718 54.4024 45.5733 54.3898 45.5737 54.3748C45.5747 54.3439 45.5751 54.2993 45.5728 54.2435C45.5682 54.1313 45.5526 53.9715 45.5113 53.7818C45.5049 53.7527 45.4969 53.7231 45.4893 53.6926L47.0164 52.772L47.0133 52.7678L47.3372 52.5734L47.3478 52.5342L47.3476 52.5332L47.3485 52.533C47.3487 52.5323 47.3484 52.5309 47.3487 52.5299C47.3492 52.5275 47.3502 52.5241 47.3511 52.5201C47.353 52.5119 47.3549 52.4999 47.3578 52.4849C47.3637 52.4546 47.3717 52.4106 47.3785 52.355C47.3921 52.2435 47.4031 52.0838 47.3929 51.89C47.3786 51.6191 47.3205 51.2815 47.1741 50.9113L48.8964 50.3517L48.8942 50.3473L49.2525 50.2316L49.2719 50.1951L49.274 50.1915C49.275 50.1894 49.276 50.186 49.2776 50.1824C49.2813 50.1748 49.2866 50.1631 49.2929 50.149C49.3055 50.1207 49.324 50.0799 49.3431 50.0273C49.3814 49.9217 49.4269 49.7681 49.4606 49.577C49.5279 49.1942 49.5445 48.6567 49.344 48.0348C49.2928 47.8763 49.2336 47.7327 49.1699 47.6022L51.5668 45.682L51.5639 45.6788L51.8593 45.4425L51.8659 45.3882C51.8667 45.3797 51.8674 45.3675 51.8684 45.3521C51.8702 45.3212 51.8709 45.2763 51.8703 45.2201C51.869 45.1078 51.8593 44.9482 51.8236 44.7574C51.7747 44.4957 51.6761 44.1756 51.4895 43.835L52.808 43.3831L52.806 43.3796L53.1625 43.2574L53.1819 43.2208L53.1828 43.2165C53.1838 43.2144 53.1857 43.2109 53.1874 43.2072C53.1909 43.1995 53.1957 43.1881 53.2017 43.174C53.2138 43.1456 53.2315 43.1047 53.2498 43.0519C53.2864 42.9457 53.329 42.7914 53.3596 42.5996C53.4208 42.2158 53.4289 41.6786 53.2184 41.0599C53.0075 40.4405 52.6835 40.0472 52.4086 39.8094C52.2717 39.6909 52.1473 39.611 52.0564 39.5604C52.011 39.5351 51.973 39.5178 51.9467 39.5059C51.9339 39.5002 51.924 39.4948 51.9166 39.4918C51.9129 39.4903 51.9088 39.4892 51.9066 39.4884L51.9042 39.487L51.9033 39.4873L51.903 39.4863L51.8706 39.4748L50.3847 39.9849L50.3897 39.9886L45.4557 41.6803L45.4548 41.6806L45.4586 41.6947C45.3654 41.7503 45.2947 41.8391 45.2464 41.947C45.186 42.0822 45.1528 42.2534 45.1437 42.4449C45.1256 42.8297 45.2027 43.3205 45.3747 43.8259C45.5398 44.3107 45.7669 44.7295 46.0049 45.0215L44.0733 46.5698L44.081 46.5798C44.0116 46.6641 43.976 46.7733 43.9667 46.8917C43.9553 47.0396 43.9817 47.2119 44.0376 47.3955C44.0666 47.4908 44.1038 47.5905 44.149 47.6932L41.5722 48.5312L41.5758 48.5444C41.4811 48.5983 41.409 48.6864 41.3587 48.7939C41.2961 48.9282 41.2599 49.0994 41.2478 49.291C41.2236 49.6754 41.2925 50.1671 41.4563 50.675C41.5294 50.9014 41.6169 51.1136 41.7121 51.306L40.7196 51.9057L39.4718 52.6581L39.4711 52.6593L39.4773 52.6708C39.3979 52.7446 39.349 52.8471 39.3242 52.9628C39.2933 53.108 39.2966 53.2829 39.3279 53.4725C39.3695 53.7238 39.4618 54.0108 39.5985 54.3089L37.8184 55.8265L37.8259 55.8356C37.7591 55.9216 37.7271 56.0313 37.7213 56.1499C37.7142 56.2981 37.7464 56.4696 37.8078 56.6515C37.931 57.0164 38.1802 57.445 38.5243 57.8523C38.7515 58.1212 38.9945 58.3499 39.2307 58.5269L38.5004 59.8156L37.7793 61.0857L37.7912 61.0925C37.7577 61.1961 37.7643 61.3097 37.7993 61.4231Z" fill="#991C00"/>
</mask>
<g mask="url(#mask1_329_5953)">
<rect opacity="0.5" x="30.8101" y="35.6038" width="29.7829" height="28.9368" fill="url(#paint4_linear_329_5953)"/>
</g>
<mask id="mask2_329_5953" style="mask-type:alpha" maskUnits="userSpaceOnUse" x="41" y="53" width="6" height="10">
<path d="M43.6319 53.8436C44.0011 53.7264 44.5297 53.6397 45.1703 53.7576C45.8117 53.8758 46.2466 54.1402 46.5214 54.3781C46.6585 54.4968 46.7554 54.6091 46.8186 54.6919C46.8502 54.7332 46.8739 54.7671 46.8894 54.7914C46.897 54.8034 46.9027 54.8133 46.9068 54.8202C46.9088 54.8236 46.9098 54.8273 46.911 54.8293L46.9137 54.8325L46.9299 54.8631L46.6468 56.4123L46.6432 56.4071L45.9643 60.1188L45.9652 60.1199L45.7024 61.5571L45.6889 61.5541C45.6483 61.6554 45.5716 61.7395 45.472 61.8037C45.3475 61.8839 45.1822 61.9421 44.9943 61.9794C44.6178 62.054 44.1237 62.0495 43.6006 61.9532C43.0775 61.8568 42.6146 61.6847 42.2891 61.4807C42.1267 61.379 41.9932 61.2667 41.9052 61.1475C41.8345 61.0517 41.792 60.9454 41.79 60.8359L41.7841 60.8355L41.7925 60.7901C41.7936 60.7782 41.7921 60.7659 41.7943 60.754C41.7966 60.7417 41.8025 60.7305 41.8058 60.7186L42.9405 54.5082L42.9444 54.5085L43.0131 54.1358L43.0463 54.1119L43.0472 54.1129C43.0477 54.1126 43.0485 54.1109 43.0493 54.1101C43.0512 54.1089 43.0543 54.1071 43.0576 54.1049C43.0646 54.1002 43.0753 54.0938 43.0884 54.0857C43.1147 54.0695 43.1535 54.0471 43.2031 54.0211C43.3023 53.9691 43.4475 53.9023 43.6319 53.8436Z" fill="#991C00"/>
</mask>
<g mask="url(#mask2_329_5953)">
<rect width="3.78391" height="6.2334" transform="matrix(0.983521 0.181138 -0.179752 0.983649 43.021 54.6238)" fill="#CC2500" stroke="black" stroke-width="0.2"/>
<path d="M42.1355 59.4717C42.1355 59.4717 42.8547 59.2408 44.0995 59.47C45.3442 59.6992 45.857 60.1571 45.857 60.1571L45.6224 61.4407L41.9009 60.7553L42.1355 59.4717Z" fill="#FFC933" stroke="black" stroke-width="0.2"/>
<ellipse cx="1.89296" cy="0.75138" rx="1.89296" ry="0.75138" transform="matrix(0.983521 0.181138 -0.179752 0.983649 42.0273 60.0334)" fill="#FFC933" stroke="black" stroke-width="0.2"/>
<path d="M46.8255 54.88C46.8255 54.88 46.3971 54.085 45.1524 53.8558C43.9077 53.6266 43.104 54.1946 43.104 54.1946L42.8694 55.4783C42.8694 55.4783 43.7296 54.9644 44.8823 55.1767C46.0349 55.389 46.591 56.1637 46.591 56.1637L46.8255 54.88Z" fill="#FFC933" stroke="black" stroke-width="0.2"/>
<path d="M44.6612 56.5405C44.711 56.4716 44.8186 56.4925 44.8392 56.575L44.973 57.1108C44.9787 57.1336 44.9922 57.1536 45.0112 57.1675L45.4572 57.4924C45.5258 57.5424 45.5051 57.6496 45.423 57.6703L44.8884 57.8048C44.8656 57.8105 44.8456 57.8241 44.8318 57.8431L44.5087 58.2901C44.459 58.359 44.3513 58.3381 44.3307 58.2555L44.197 57.7198C44.1913 57.697 44.1777 57.6769 44.1587 57.6631L43.7127 57.3381C43.6441 57.2882 43.6648 57.181 43.747 57.1603L44.2816 57.0258C44.3043 57.02 44.3243 57.0065 44.3381 56.9875L44.6612 56.5405Z" fill="#991C00"/>
<rect width="4.67605" height="8.60592" transform="matrix(0.99703 0.0770175 -0.0764217 0.997075 42.1245 53.4316)" fill="url(#paint5_linear_329_5953)" style="mix-blend-mode:darken"/>
</g>
<mask id="mask3_329_5953" style="mask-type:alpha" maskUnits="userSpaceOnUse" x="43" y="51" width="7" height="9">
<path d="M44.3082 52.2063C44.6011 51.9521 45.0528 51.6626 45.6878 51.5167C46.3235 51.3707 46.8275 51.441 47.1736 51.5505C47.3459 51.605 47.4792 51.6691 47.5698 51.7201C47.615 51.7455 47.6504 51.7682 47.6743 51.7844C47.686 51.7924 47.6951 51.7992 47.7015 51.8039C47.7045 51.8061 47.7069 51.8084 47.7087 51.8097C47.7096 51.8104 47.7109 51.8114 47.7115 51.8119L47.7124 51.8115L47.7127 51.8125L47.7397 51.8342L48.0895 53.3692L48.0842 53.3659L48.9219 57.0442L48.9232 57.0448L49.2478 58.4697L49.2343 58.4723C49.2366 58.5814 49.1985 58.6885 49.1321 58.7872C49.0494 58.9102 48.9215 59.029 48.7636 59.1378C48.4472 59.3559 47.9917 59.5487 47.473 59.6678C46.9545 59.7869 46.4609 59.8116 46.0815 59.7534C45.8924 59.7243 45.7255 59.674 45.5978 59.5994C45.4953 59.5394 45.4145 59.4593 45.3696 59.3598L45.365 59.3614L45.3567 59.325C45.352 59.3112 45.3449 59.2981 45.3416 59.2837C45.338 59.2678 45.3384 59.2517 45.3367 59.2358L45.0394 57.9336L45.0391 57.9327L43.9356 53.0901L43.9384 53.0891L43.855 52.7203L43.8846 52.6739C43.8892 52.667 43.8958 52.6568 43.9045 52.6444C43.9222 52.6191 43.949 52.583 43.9843 52.5396C44.0549 52.4525 44.1619 52.3334 44.3082 52.2063Z" fill="#991C00"/>
</mask>
<g mask="url(#mask3_329_5953)">
<rect width="3.78535" height="6.23105" transform="matrix(0.97438 -0.223794 0.22225 0.975244 44.0542 53.165)" fill="#CC2500" stroke="black" stroke-width="0.2"/>
<path d="M45.1497 57.9695C45.1497 57.9695 45.7195 57.472 46.9531 57.1887C48.1867 56.9053 48.8381 57.1224 48.8381 57.1224L49.128 58.3946L45.4396 59.2417L45.1497 57.9695Z" fill="#FFC933" stroke="black" stroke-width="0.2"/>
<ellipse cx="1.89368" cy="0.751097" rx="1.89368" ry="0.751097" transform="matrix(0.97438 -0.223794 0.22225 0.975244 45.2715 58.5286)" fill="#FFC933" stroke="black" stroke-width="0.2"/>
<path d="M47.6501 51.8907C47.6501 51.8907 46.9436 51.3304 45.71 51.6138C44.4764 51.8971 43.9618 52.7378 43.9618 52.7378L44.2517 54.0101C44.2517 54.0101 44.8395 53.1967 45.9819 52.9343C47.1242 52.6719 47.94 53.1629 47.94 53.1629L47.6501 51.8907Z" fill="#FFC933" stroke="black" stroke-width="0.2"/>
<path d="M46.3154 54.2746C46.334 54.1916 46.4411 54.1681 46.4925 54.2358L46.8263 54.6749C46.8405 54.6935 46.8609 54.7066 46.8838 54.7118L47.4213 54.8333C47.504 54.852 47.5272 54.9587 47.4599 55.0103L47.0219 55.3459C47.0032 55.3602 46.9902 55.3806 46.985 55.4036L46.8642 55.9425C46.8456 56.0255 46.7386 56.049 46.6871 55.9813L46.3533 55.5422C46.3391 55.5235 46.3188 55.5105 46.2959 55.5053L45.7583 55.3838C45.6756 55.3651 45.6524 55.2584 45.7197 55.2068L46.1578 54.8712C46.1764 54.8569 46.1895 54.8365 46.1946 54.8135L46.3154 54.2746Z" fill="#991C00"/>
<rect width="4.67787" height="8.60261" transform="matrix(0.945753 -0.324886 0.322622 0.946528 42.9414 52.3481)" fill="url(#paint6_linear_329_5953)" style="mix-blend-mode:darken"/>
</g>
<mask id="mask4_329_5953" style="mask-type:alpha" maskUnits="userSpaceOnUse" x="44" y="49" width="7" height="9">
<path d="M47.115 49.218C47.4909 49.1246 48.0244 49.0722 48.6566 49.231C49.2892 49.3901 49.7063 49.6819 49.9654 49.9369C50.0947 50.0642 50.1842 50.1824 50.242 50.2692C50.2708 50.3124 50.2923 50.3477 50.3063 50.373C50.3132 50.3857 50.3191 50.3958 50.3228 50.403C50.3245 50.4065 50.3254 50.4103 50.3264 50.4124L50.3279 50.4155L50.3422 50.4472L49.961 51.9751L49.9568 51.9696L49.0441 55.6295L49.0449 55.6306L48.691 57.049L48.6778 57.0452C48.6308 57.1437 48.549 57.2227 48.4454 57.2804C48.316 57.3524 48.1475 57.399 47.9576 57.4242C47.5771 57.4745 47.0845 57.4383 46.5685 57.3086C46.0528 57.1788 45.6016 56.9783 45.2897 56.7539C45.134 56.6419 45.0083 56.5204 44.928 56.3957C44.8637 56.2957 44.8279 56.1875 44.8327 56.0784L44.8279 56.0777L44.8369 56.0415C44.8389 56.0268 44.8386 56.0116 44.8422 55.9969C44.8461 55.9814 44.8538 55.9676 44.8593 55.953L45.1822 54.6564L45.1823 54.6554L46.3848 49.8363L46.3887 49.8368L46.4808 49.4702L46.5143 49.4493L46.5154 49.4485L46.5163 49.4496C46.5169 49.4491 46.5176 49.4475 46.5186 49.4469C46.5206 49.4457 46.5237 49.4442 46.5272 49.4422C46.5344 49.4381 46.5448 49.4321 46.5582 49.4249C46.5853 49.4105 46.6249 49.3903 46.6757 49.3677C46.778 49.3222 46.9272 49.2648 47.115 49.218Z" fill="#991C00"/>
</mask>
<g mask="url(#mask4_329_5953)">
<rect width="3.78411" height="6.23307" transform="matrix(0.969929 0.243853 -0.242013 0.970157 46.457 49.9573)" fill="#CC2500" stroke="black" stroke-width="0.2"/>
<path d="M45.2646 54.7385C45.2646 54.7385 45.9971 54.5543 47.2247 54.8629C48.4523 55.1715 48.9349 55.6613 48.9349 55.6613L48.6191 56.9273L44.9488 56.0045L45.2646 54.7385Z" fill="#FFC933" stroke="black" stroke-width="0.2"/>
<ellipse cx="1.89306" cy="0.751341" rx="1.89306" ry="0.751341" transform="matrix(0.969929 0.243853 -0.242013 0.970157 45.1211 55.2922)" fill="#FFC933" stroke="black" stroke-width="0.2"/>
<path d="M50.2373 50.4572C50.2373 50.4572 49.8604 49.6363 48.6328 49.3277C47.4052 49.019 46.567 49.5344 46.567 49.5344L46.2511 50.8004C46.2511 50.8004 47.1423 50.3427 48.2791 50.6285C49.4159 50.9143 49.9215 51.7232 49.9215 51.7232L50.2373 50.4572Z" fill="#FFC933" stroke="black" stroke-width="0.2"/>
<path d="M47.9717 51.9754C48.0258 51.9098 48.1319 51.9376 48.1472 52.0213L48.2466 52.5645C48.2508 52.5876 48.263 52.6085 48.2811 52.6235L48.7055 52.9764C48.7708 53.0307 48.7433 53.1364 48.66 53.1517L48.118 53.2517C48.0949 53.2559 48.0741 53.2682 48.0591 53.2863L47.7082 53.7116C47.6541 53.7772 47.5481 53.7494 47.5327 53.6657L47.4334 53.1225C47.4292 53.0994 47.4169 53.0785 47.3989 53.0634L46.9744 52.7105C46.9092 52.6563 46.9366 52.5506 47.0199 52.5353L47.562 52.4353C47.5851 52.4311 47.6059 52.4188 47.6208 52.4007L47.9717 51.9754Z" fill="#991C00"/>
<rect width="4.67631" height="8.60546" transform="matrix(0.990045 0.140748 -0.139674 0.990197 45.8335 48.7229)" fill="url(#paint7_linear_329_5953)" style="mix-blend-mode:darken"/>
</g>
<mask id="mask5_329_5953" style="mask-type:alpha" maskUnits="userSpaceOnUse" x="47" y="46" width="6" height="9">
<path d="M48.3521 46.9047C48.6836 46.7035 49.1783 46.4945 49.8292 46.4582C50.4802 46.4219 50.9646 46.5754 51.2874 46.7419C51.4481 46.8248 51.5679 46.9114 51.6487 46.977C51.689 47.0097 51.7209 47.0369 51.7417 47.0569C51.7521 47.0669 51.7599 47.076 51.7655 47.0817C51.7681 47.0845 51.77 47.087 51.7715 47.0887L51.775 47.0921L51.798 47.118L51.8852 48.6908L51.8796 48.6867L52.0887 52.4539L52.0898 52.4547L52.1705 53.9137L52.1558 53.9141C52.1399 54.0219 52.0849 54.1211 52.0031 54.207C51.9009 54.3142 51.7549 54.4107 51.581 54.4912C51.2327 54.6524 50.752 54.7643 50.2213 54.7941C49.6902 54.8237 49.1993 54.7656 48.8351 54.6441C48.6534 54.5835 48.4973 54.5048 48.3838 54.4097C48.2932 54.3336 48.2271 54.2411 48.1993 54.1359L48.1935 54.1369L48.1909 54.0898C48.1892 54.078 48.1848 54.0664 48.1842 54.0543C48.1835 54.0415 48.1864 54.0288 48.1869 54.0162L48.1122 52.674L48.112 52.673L47.8373 47.7125L47.8411 47.7119L47.8209 47.3343L47.8477 47.3042L47.8475 47.3032L47.8485 47.3031C47.8489 47.3024 47.8492 47.3007 47.8499 47.2999C47.8515 47.2981 47.854 47.2957 47.8567 47.2928C47.8624 47.2867 47.8706 47.2779 47.8813 47.2671C47.903 47.2451 47.9355 47.2141 47.9776 47.1772C48.0618 47.1034 48.1869 47.005 48.3521 46.9047Z" fill="#991C00"/>
</mask>
<g mask="url(#mask5_329_5953)">
<rect width="3.7842" height="6.23293" transform="matrix(0.998315 -0.0557743 0.0553558 0.998594 47.9424 47.8064)" fill="#CC2500" stroke="black" stroke-width="0.2"/>
<path d="M48.2156 52.7275C48.2156 52.7275 48.8607 52.3335 50.1243 52.2629C51.3878 52.1923 51.9934 52.5164 51.9934 52.5164L52.0656 53.8195L48.2878 54.0305L48.2156 52.7275Z" fill="#FFC933" stroke="black" stroke-width="0.2"/>
<ellipse cx="1.89311" cy="0.751324" rx="1.89311" ry="0.751324" transform="matrix(0.998315 -0.0557743 0.0553558 0.998594 48.2417 53.2991)" fill="#FFC933" stroke="black" stroke-width="0.2"/>
<path d="M51.7006 47.1586C51.7006 47.1586 51.0982 46.4868 49.8347 46.5574C48.5711 46.628 47.9228 47.3696 47.9228 47.3696L47.995 48.6727C47.995 48.6727 48.711 47.9704 49.881 47.905C51.0511 47.8397 51.7728 48.4616 51.7728 48.4616L51.7006 47.1586Z" fill="#FFC933" stroke="black" stroke-width="0.2"/>
<path d="M49.9849 49.283C50.0172 49.2043 50.1267 49.1992 50.1661 49.2746L50.4214 49.7639C50.4323 49.7847 50.4501 49.801 50.4718 49.81L50.9814 50.0207C51.0597 50.0531 51.0647 50.1622 50.9897 50.2016L50.5015 50.4584C50.4807 50.4693 50.4644 50.4872 50.4555 50.509L50.246 51.0197C50.2137 51.0983 50.1042 51.1034 50.0648 51.028L49.8095 50.5388C49.7987 50.518 49.7808 50.5016 49.7591 50.4927L49.2495 50.2819C49.1712 50.2496 49.1662 50.1405 49.2413 50.101L49.7294 49.8442C49.7502 49.8333 49.7665 49.8154 49.7754 49.7937L49.9849 49.283Z" fill="#991C00"/>
<rect width="4.67641" height="8.60526" transform="matrix(0.987065 -0.160318 0.159102 0.987262 46.9824 46.8132)" fill="url(#paint8_linear_329_5953)" style="mix-blend-mode:darken"/>
<rect width="4.67641" height="8.60526" transform="matrix(0.987065 -0.160318 0.159102 0.987262 46.9824 46.8132)" fill="url(#paint9_linear_329_5953)" style="mix-blend-mode:soft-light"/>
</g>
<mask id="mask6_329_5953" style="mask-type:alpha" maskUnits="userSpaceOnUse" x="49" y="43" width="5" height="9">
<path d="M50.6065 43.6279C50.9625 43.4748 51.48 43.3366 52.1291 43.391C52.7791 43.4454 53.2376 43.6658 53.5343 43.8755C53.6823 43.9801 53.7898 44.0823 53.8608 44.1586C53.8962 44.1966 53.9231 44.2289 53.9409 44.2516C53.9495 44.2625 53.9563 44.2712 53.961 44.2775L53.9691 44.2891L53.9882 44.318L53.8577 45.8875L53.8536 45.8827L53.5403 49.6433L53.5423 49.6442L53.421 51.1003L53.42 51.0993L53.4201 51.1013L53.4063 51.0996C53.3755 51.2042 53.3067 51.2948 53.2138 51.3685C53.0978 51.4603 52.9406 51.5348 52.7575 51.5903C52.3901 51.7016 51.898 51.7456 51.3679 51.7013C50.838 51.6568 50.3605 51.531 50.0166 51.3601C49.8451 51.2749 49.7013 51.1762 49.602 51.0663C49.5226 50.9782 49.4699 50.8769 49.457 50.7685L49.4511 50.7687L49.455 50.7217C49.4549 50.7097 49.4522 50.6977 49.4532 50.6856C49.4543 50.6728 49.459 50.6607 49.4612 50.6483L49.5374 49.7304L49.5723 49.3087L49.5723 49.3077L49.9842 44.3563L49.9872 44.3562L50.0192 43.9795L50.0508 43.9534L50.0614 43.9444C50.0679 43.9391 50.0773 43.9304 50.0892 43.9213C50.1138 43.9026 50.1505 43.8773 50.197 43.8467C50.2907 43.7852 50.4287 43.7044 50.6065 43.6279Z" fill="#991C00"/>
</mask>
<g mask="url(#mask6_329_5953)">
<rect width="3.78383" height="6.23353" transform="matrix(0.99649 0.0835068 -0.0828644 0.996578 50.0747 44.4644)" fill="#CC2500" stroke="black" stroke-width="0.2"/>
<path d="M49.6667 49.3759C49.6667 49.3759 50.3599 49.0754 51.6211 49.1811C52.8822 49.2868 53.4372 49.6919 53.4372 49.6919L53.3291 50.9925L49.5585 50.6765L49.6667 49.3759Z" fill="#FFC933" stroke="black" stroke-width="0.2"/>
<ellipse cx="1.89292" cy="0.751396" rx="1.89292" ry="0.751396" transform="matrix(0.99649 0.0835068 -0.0828644 0.996578 49.6143 49.9458)" fill="#FFC933" stroke="black" stroke-width="0.2"/>
<path d="M53.8865 44.3451C53.8865 44.3451 53.3825 43.5961 52.1214 43.4904C50.8603 43.3847 50.1159 44.0291 50.1159 44.0291L50.0078 45.3297C50.0078 45.3297 50.8137 44.7336 51.9815 44.8315C53.1493 44.9293 53.7783 45.6456 53.7783 45.6456L53.8865 44.3451Z" fill="#FFC933" stroke="black" stroke-width="0.2"/>
<path d="M51.8943 46.2104C51.9371 46.137 52.0463 46.1472 52.0748 46.2273L52.2602 46.7473C52.2681 46.7694 52.2835 46.7881 52.3038 46.8L52.7794 47.0795C52.8525 47.1225 52.8424 47.2312 52.7627 47.2599L52.2438 47.4463C52.2217 47.4542 52.2031 47.4697 52.1913 47.49L51.9133 47.9666C51.8705 48.0401 51.7614 48.0299 51.7328 47.9497L51.5474 47.4298C51.5395 47.4076 51.5241 47.389 51.5038 47.3771L51.0282 47.0976C50.9551 47.0546 50.9652 46.9459 51.0449 46.9172L51.5638 46.7308C51.5859 46.7228 51.6045 46.7074 51.6163 46.6871L51.8943 46.2104Z" fill="#991C00"/>
<rect width="4.67596" height="8.6061" transform="matrix(0.999768 -0.0215498 0.0213824 0.999771 49.2612 43.3469)" fill="url(#paint10_linear_329_5953)" style="mix-blend-mode:darken"/>
<rect width="4.67596" height="8.6061" transform="matrix(0.999768 -0.0215498 0.0213824 0.999771 49.2612 43.3469)" fill="url(#paint11_linear_329_5953)" style="mix-blend-mode:soft-light"/>
</g>
<mask id="mask7_329_5953" style="mask-type:alpha" maskUnits="userSpaceOnUse" x="51" y="40" width="6" height="9">
<path d="M52.9365 40.4265C53.2957 40.2811 53.8168 40.154 54.4648 40.2224C55.1133 40.2908 55.5672 40.521 55.8594 40.737C56.005 40.8448 56.1103 40.9493 56.1797 41.0271C56.2143 41.0658 56.2405 41.0987 56.2578 41.1218C56.2662 41.1329 56.2728 41.1417 56.2773 41.1482C56.2796 41.1515 56.2809 41.155 56.2822 41.1569L56.2852 41.1599L56.3037 41.1892L56.1396 42.7556L56.1357 42.7507L55.7422 46.5036L55.7432 46.5046L55.5908 47.9587L55.5771 47.9568C55.544 48.0606 55.4732 48.1498 55.3789 48.2214C55.261 48.3107 55.1013 48.3817 54.917 48.4333C54.5473 48.5367 54.0543 48.5702 53.5254 48.5144C52.9965 48.4585 52.5218 48.3226 52.1816 48.1443C52.0119 48.0553 51.8703 47.9536 51.7734 47.8415C51.6959 47.7517 51.6454 47.6494 51.6348 47.5407H51.6289L51.6338 47.4939C51.634 47.4819 51.6315 47.4698 51.6328 47.4577C51.6342 47.445 51.6391 47.433 51.6416 47.4206L52.2988 41.1423H52.3027L52.3428 40.7653L52.375 40.74L52.3857 40.7312C52.3923 40.7261 52.4021 40.7184 52.4141 40.7097C52.439 40.6915 52.4762 40.666 52.5234 40.6364C52.6183 40.577 52.7574 40.4991 52.9365 40.4265Z" fill="#991C00"/>
</mask>
<g mask="url(#mask7_329_5953)">
<rect width="3.78383" height="6.23354" transform="matrix(0.994479 0.104933 -0.104125 0.994564 52.3877 41.2513)" fill="#CC2500" stroke="black" stroke-width="0.2"/>
<path d="M51.8749 46.153C51.8749 46.153 52.5744 45.8675 53.833 46.0003C55.0916 46.1331 55.6378 46.5501 55.6378 46.5501L55.5019 47.848L51.739 47.451L51.8749 46.153Z" fill="#FFC933" stroke="black" stroke-width="0.2"/>
<ellipse cx="1.89292" cy="0.751397" rx="1.89292" ry="0.751397" transform="matrix(0.994479 0.104933 -0.104125 0.994564 51.8101 46.7217)" fill="#FFC933" stroke="black" stroke-width="0.2"/>
<path d="M56.2006 41.2142C56.2006 41.2142 55.7128 40.4545 54.4542 40.3217C53.1956 40.1889 52.4377 40.8171 52.4377 40.8171L52.3018 42.115C52.3018 42.115 53.1202 41.5365 54.2857 41.6594C55.4511 41.7824 56.0647 42.5121 56.0647 42.5121L56.2006 41.2142Z" fill="#FFC933" stroke="black" stroke-width="0.2"/>
<path d="M54.1692 43.0362C54.2136 42.9636 54.3225 42.9762 54.3494 43.0569L54.5236 43.5808C54.531 43.6031 54.546 43.622 54.566 43.6344L55.0356 43.9241C55.1078 43.9686 55.0954 44.0771 55.015 44.104L54.4923 44.2793C54.47 44.2867 54.4511 44.3018 54.4388 44.3218L54.1508 44.7923C54.1064 44.8649 53.9975 44.8523 53.9706 44.7716L53.7964 44.2477C53.789 44.2254 53.7739 44.2064 53.7539 44.1941L53.2844 43.9044C53.2122 43.8599 53.2246 43.7514 53.305 43.7245L53.8277 43.5492C53.85 43.5418 53.8689 43.5267 53.8812 43.5067L54.1692 43.0362Z" fill="#991C00"/>
<rect width="4.67596" height="8.6061" transform="matrix(0.999768 -0.0215499 0.0213823 0.999771 51.5991 40.2173)" fill="url(#paint12_linear_329_5953)" style="mix-blend-mode:soft-light"/>
</g>
<line x1="0.15" y1="-0.15" x2="1.4099" y2="-0.15" transform="matrix(0.890685 -0.45462 0.451807 0.892116 56.7456 36.4825)" stroke="#241C3F" stroke-width="0.3" stroke-linecap="round"/>
<line x1="0.15" y1="-0.15" x2="1.4099" y2="-0.15" transform="matrix(0.890685 -0.45462 0.451807 0.892116 56.5347 35.9797)" stroke="#241C3F" stroke-width="0.3" stroke-linecap="round"/>
<line x1="0.25" y1="-0.25" x2="1.57854" y2="-0.25" transform="matrix(0.890691 -0.454609 0.451796 0.892121 56.5786 36.3584)" stroke="#171228" stroke-width="0.5" stroke-linecap="round"/>
<path d="M36.2701 58.1106C36.3342 57.9546 36.2168 57.7723 36.0364 57.7831L34.7189 57.8628C34.8804 57.7184 35.0803 57.5378 35.2835 57.3561C35.7473 56.9415 36.2216 56.5186 36.2699 56.4763C36.2871 56.4613 36.3035 56.4496 36.3262 56.4327C36.34 56.4224 36.3817 56.3918 36.4114 56.3526C36.4289 56.3294 36.4525 56.2905 36.4589 56.2378C36.4657 56.1811 36.45 56.131 36.4271 56.0925C36.3903 56.0307 36.3306 55.9945 36.2978 55.9756C36.2283 55.9358 35.622 55.6329 35.0464 55.3467C34.8298 55.239 34.6151 55.1328 34.4314 55.0416L35.6789 54.9461C35.859 54.9321 35.9553 54.7304 35.8597 54.5808L35.3225 53.7406L36.7008 54.2252C36.8655 54.283 37.0246 54.15 37.0147 53.9864L36.8935 51.985L37.9628 53.8641L37.9692 53.8756L37.9768 53.8865L38.0221 53.9321C38.137 54.0214 38.3104 53.9834 38.3774 53.8501L38.3796 53.8436L39.1143 52.2458C39.1357 52.4039 39.16 52.5815 39.1841 52.7596C39.2562 53.2912 39.3305 53.8402 39.334 53.8598C39.3325 53.8518 39.3326 53.8498 39.3342 53.8681C39.3354 53.8808 39.3371 53.8977 39.3388 53.9182C39.3422 53.9591 39.3464 54.0129 39.3514 54.0651C39.3563 54.1162 39.3616 54.1705 39.3681 54.2124C39.3711 54.2317 39.3754 54.2573 39.3821 54.2803C39.3843 54.288 39.3927 54.3158 39.4109 54.3439C39.419 54.3565 39.4446 54.3928 39.4933 54.4167C39.5428 54.441 39.5972 54.4431 39.6456 54.4269L39.6915 54.4045L39.7076 54.3936C39.7096 54.3921 39.712 54.3903 39.7132 54.3893C39.7156 54.3874 39.718 54.3849 39.7207 54.3826C39.7264 54.3777 39.7346 54.3709 39.744 54.3627C39.7632 54.3462 39.7908 54.3221 39.8248 54.2925C39.8934 54.2329 39.9906 54.1481 40.1058 54.0475C40.3361 53.8462 40.6412 53.5797 40.9454 53.3133C41.1757 53.1116 41.406 52.91 41.6028 52.7374L40.8443 54.4654C40.7842 54.6023 40.8657 54.7626 41.0097 54.7931L41.0751 54.7981L42.3339 54.724L41.2342 55.6845C41.1106 55.7926 41.1293 55.9987 41.285 56.076L42.9901 56.9234L40.8619 57.0468L40.8505 57.047L40.8384 57.049C40.7861 57.0585 40.7295 57.069 40.6869 57.0815C40.6653 57.0878 40.6341 57.0986 40.6033 57.1177C40.5703 57.1383 40.5253 57.1768 40.5032 57.2412C40.4817 57.3044 40.4925 57.361 40.5041 57.3955C40.5154 57.4288 40.5324 57.4566 40.5448 57.4756C40.5692 57.5131 40.6057 57.5574 40.6404 57.6005L40.6416 57.603L41.6331 58.8076L40.422 58.3805C40.2592 58.3235 40.1009 58.4532 40.1074 58.615L40.1849 60.527L39.097 58.8801C38.994 58.724 38.7691 58.7461 38.6895 58.9038L37.9626 60.3493L37.7538 58.4468L37.7515 58.4325C37.7211 58.2645 37.5274 58.1814 37.3852 58.2783L37.3709 58.2899L35.5892 59.7683L36.2701 58.1106Z" fill="#FFC933" stroke="#FF2E00" stroke-width="0.4"/>
<path d="M39.9052 52.3884C39.9789 52.2778 39.9497 52.1202 39.8262 52.0491L37.5635 50.747L38.4114 50.679C38.6072 50.6634 38.6989 50.4301 38.5715 50.2838L37.8148 49.4154L40.5069 50.1931C40.6472 50.2334 40.7814 50.139 40.8053 50.0057L41.2165 47.6973L41.8313 48.5518L41.8754 48.598C41.9707 48.6762 42.1091 48.6639 42.1925 48.5793L42.2296 48.5312L42.9359 47.3027L42.9808 49.0836L42.9917 49.1483C43.0295 49.2712 43.1622 49.3449 43.2866 49.3059L43.3471 49.2771L45.0027 48.1912L44.5781 49.1604C44.5162 49.3019 44.6062 49.4715 44.7596 49.4927L44.8291 49.4918L45.3166 49.4214L44.292 50.7776C44.1929 50.9092 44.2531 51.1158 44.4315 51.1542L46.4329 51.5852L44.4582 52.3276C44.3264 52.3777 44.2674 52.5315 44.3299 52.6573L44.901 53.8057L43.6745 53.4023C43.5105 53.3485 43.3577 53.4801 43.3636 53.638L43.4668 56.3677L41.7047 54.0431C41.6172 53.9283 41.4528 53.9197 41.3528 54.0157L40.5375 54.7995L40.5437 54.3048C40.5458 54.1351 40.3713 54.0112 40.2091 54.0851L38.1507 55.0238L39.9052 52.3884Z" fill="#FFC933" stroke="#FF2E00" stroke-width="0.4"/>
<path d="M45.0264 46.072C45.0906 45.916 44.9732 45.7337 44.7927 45.7445L43.4753 45.8242C43.6367 45.6798 43.8366 45.4992 44.0398 45.3175C44.5037 44.9029 44.9779 44.48 45.0263 44.4378C45.0435 44.4227 45.0598 44.411 45.0825 44.3941C45.0963 44.3838 45.138 44.3532 45.1677 44.314C45.1853 44.2908 45.2089 44.252 45.2153 44.1992C45.2221 44.1425 45.2063 44.0924 45.1834 44.054C45.1466 43.9921 45.0869 43.9559 45.0542 43.9371C44.9847 43.8972 44.3783 43.5943 43.8027 43.3081C43.5861 43.2004 43.3715 43.0942 43.1877 43.003L44.4352 42.9075C44.6153 42.8935 44.7116 42.6918 44.616 42.5422L44.0789 41.702L45.4571 42.1867C45.6219 42.2444 45.7809 42.1114 45.7711 41.9478L45.6499 39.9464L46.7192 41.8255L46.7256 41.837L46.7332 41.8479L46.7785 41.8935C46.8934 41.9829 47.0667 41.9448 47.1337 41.8115L47.136 41.805L47.8706 40.2072C47.892 40.3653 47.9163 40.5429 47.9405 40.721C48.0126 41.2527 48.0868 41.8017 48.0903 41.8212C48.0889 41.8132 48.0889 41.8112 48.0906 41.8295C48.0917 41.8422 48.0934 41.8592 48.0951 41.8796C48.0985 41.9205 48.1028 41.9743 48.1078 42.0266C48.1127 42.0777 48.118 42.1319 48.1245 42.1739C48.1275 42.1932 48.1317 42.2188 48.1384 42.2417C48.1407 42.2494 48.149 42.2772 48.1672 42.3053C48.1754 42.3179 48.201 42.3542 48.2496 42.3782C48.2991 42.4024 48.3536 42.4045 48.402 42.3884L48.4478 42.366L48.464 42.355C48.4659 42.3535 48.4684 42.3517 48.4696 42.3507C48.4719 42.3488 48.4744 42.3463 48.477 42.344C48.4828 42.3391 48.4909 42.3323 48.5003 42.3242C48.5196 42.3076 48.5471 42.2835 48.5812 42.2539C48.6497 42.1943 48.747 42.1095 48.8622 42.0089C49.0924 41.8077 49.3976 41.5411 49.7017 41.2748C49.9321 41.073 50.1623 40.8714 50.3592 40.6989L49.6006 42.4268C49.5405 42.5638 49.622 42.724 49.7661 42.7545L49.8315 42.7595L51.0903 42.6855L49.9905 43.646C49.867 43.754 49.8857 43.9602 50.0413 44.0374L51.7465 44.8849L49.6182 45.0082L49.6068 45.0084L49.5948 45.0104C49.5425 45.0199 49.4859 45.0304 49.4433 45.0429C49.4217 45.0493 49.3904 45.06 49.3597 45.0791C49.3267 45.0997 49.2816 45.1382 49.2596 45.2027C49.2381 45.2658 49.2488 45.3224 49.2605 45.3569C49.2717 45.3902 49.2888 45.418 49.3012 45.437C49.3256 45.4745 49.362 45.5188 49.3967 45.5619L49.398 45.5644L50.3895 46.769L49.1783 46.3419C49.0156 46.2849 48.8573 46.4146 48.8638 46.5764L48.9412 48.4884L47.8534 46.8415C47.7504 46.6854 47.5254 46.7076 47.4458 46.8652L46.7189 48.3107L46.5102 46.4082L46.5078 46.394C46.4774 46.2259 46.2837 46.1429 46.1416 46.2397L46.1273 46.2513L44.3456 47.7297L45.0264 46.072Z" fill="#FFC933" stroke="#FF2E00" stroke-width="0.4"/>
<path d="M50.9151 41.1791C50.7173 41.0529 50.5 41.2572 50.5724 41.4568L50.5765 41.4679L49.9002 40.8012C49.7973 40.6998 49.6141 40.7104 49.5345 40.8529L48.1006 43.429L48.1301 42.2718C48.1327 42.1728 48.0749 42.0968 48.0031 42.0588L48.0803 41.7014C48.1039 41.5927 48.0494 41.4987 47.9765 41.4523C47.9027 41.4053 47.7869 41.394 47.6973 41.4741L46.9247 42.168L48.0928 40.2166C48.1599 40.104 48.1207 39.9645 48.0189 39.8982L47.5982 39.6251C47.5725 39.6084 47.543 39.5961 47.5119 39.5905L46.6619 39.4387C46.8399 39.3573 46.8242 39.1225 46.6864 39.0328L45.4039 38.1993L47.0098 38.2708L47.0884 38.2625C47.2533 38.2179 47.2968 38.0052 47.1972 37.8856L46.5432 37.101L47.591 37.7692L47.665 37.8019C47.8137 37.8388 47.9519 37.7125 47.9481 37.5655L47.9337 37.4915L47.7921 37.0984L48.5659 37.8621C48.6559 37.9507 48.807 37.9537 48.8968 37.8577L48.9316 37.8104L50.2594 35.4279L50.2367 36.2933C50.2342 36.3924 50.2925 36.468 50.3646 36.5058L50.2177 37.179C50.2146 37.1936 50.2133 37.2088 50.2129 37.2235L50.2121 37.2534C50.2098 37.3523 50.2674 37.4316 50.3406 37.469C50.3961 37.4973 50.4691 37.5048 50.5363 37.4763L50.6007 37.4356L51.4356 36.6876L50.3168 38.554C50.2311 38.6974 50.3186 38.8785 50.477 38.907L51.6939 39.1249L51.4305 39.2076C51.219 39.274 51.229 39.5347 51.3746 39.6294L52.9551 40.6559L51.3493 40.5843C51.1216 40.5744 51.048 40.8329 51.1618 40.9695L51.8159 41.7542L50.9151 41.1791Z" fill="#FFC933" stroke="#FF2E00" stroke-width="0.4"/>
<path d="M39.4893 59.4661C39.5842 59.6485 39.8183 59.6149 39.8955 59.4622L40.1006 60.2053C40.1386 60.3419 40.3012 60.4238 40.4395 60.3411L42.6035 59.0452L42.1162 59.8459C42.0695 59.9226 42.0766 60.0075 42.1113 60.0735L41.9043 60.303C41.831 60.3838 41.8308 60.4913 41.8701 60.5667C41.9099 60.6429 42.0038 60.7091 42.1201 60.6848L42.8799 60.5256L41.2441 61.4348C41.1312 61.4976 41.0963 61.6361 41.1504 61.7424L41.3535 62.1399C41.3672 62.1668 41.3864 62.192 41.4102 62.2122L41.9521 62.6702C41.8004 62.696 41.7277 62.8751 41.792 63.0022L42.3721 64.1418L41.2393 63.4163L41.168 63.384C41.0047 63.3402 40.8636 63.5009 40.8896 63.6506L41.0205 64.4016L40.5781 63.551L40.5303 63.4866C40.4213 63.3816 40.2415 63.4212 40.1729 63.5481L40.1494 63.6184L40.1016 63.886L39.8711 63.0491C39.838 62.9295 39.7101 62.8513 39.5859 62.8889L39.5332 62.9124L37.5352 64.1077L37.8887 63.5286C37.9358 63.4513 37.928 63.3653 37.8926 63.2991L38.293 62.8586C38.3027 62.8478 38.3109 62.8358 38.3184 62.8235L38.332 62.801C38.3825 62.718 38.3731 62.6218 38.3291 62.554C38.2956 62.5024 38.2367 62.4592 38.165 62.4504L38.0898 62.4543L37.2607 62.6272L38.8193 61.761C38.9625 61.681 38.9762 61.4842 38.8555 61.3821L38.085 60.7297L38.2354 60.7639C38.4496 60.8122 38.5672 60.5841 38.4902 60.4329L37.7656 59.012L38.8994 59.7385C39.0899 59.8605 39.2788 59.6743 39.249 59.5032L39.1182 58.7522L39.4893 59.4661Z" fill="#FFC933" stroke="#FF2E00" stroke-width="0.4"/>
<path d="M46.5087 62.434C46.3433 62.3926 46.1833 62.5369 46.2196 62.7116L46.4874 63.9989C46.3232 63.861 46.1192 63.6906 45.9135 63.5176C45.4397 63.1192 44.9559 62.7123 44.908 62.6711C44.8909 62.6564 44.8774 62.6418 44.8575 62.6219C44.8455 62.6098 44.8097 62.5731 44.7668 62.5492C44.7412 62.535 44.6989 62.5171 44.6453 62.5184C44.5881 62.5199 44.5409 62.5427 44.5064 62.5709C44.4509 62.6164 44.4235 62.6808 44.4099 62.7157C44.3809 62.7901 44.1722 63.4329 43.975 64.043C43.9016 64.2698 43.8297 64.4945 43.7675 64.6877L43.4943 63.4768C43.4545 63.3006 43.2408 63.2331 43.1066 63.3504L42.365 63.9991L42.6397 62.5722C42.6724 62.4024 42.5198 62.2606 42.3576 62.2947L40.419 62.7028L42.1034 61.3766L42.1139 61.3686L42.1225 61.3593L42.1609 61.3079C42.2311 61.1822 42.1707 61.0167 42.0283 60.969L42.0218 60.9668L40.3515 60.4734C40.5027 60.4295 40.6727 60.3805 40.8429 60.3311C41.3539 60.1828 41.8826 60.029 41.9006 60.0229C41.8928 60.0256 41.8898 60.0266 41.9077 60.0223C41.9199 60.0193 41.9365 60.0153 41.9565 60.0106C41.996 60.0013 42.0475 59.989 42.098 59.9765C42.1476 59.9642 42.2009 59.9504 42.2413 59.9378C42.2597 59.9321 42.2839 59.924 42.3053 59.9141C42.3127 59.9107 42.3388 59.8994 42.3638 59.8774C42.3748 59.8676 42.4072 59.837 42.4236 59.7853C42.4402 59.733 42.4344 59.6786 42.4113 59.6329L42.3824 59.5907L42.3692 59.5763C42.3674 59.5747 42.3651 59.5734 42.364 59.5724C42.3616 59.5702 42.3592 59.5674 42.3564 59.565C42.3507 59.56 42.3428 59.553 42.3333 59.5448C42.3143 59.5281 42.2871 59.5045 42.253 59.475C42.1846 59.416 42.0874 59.3327 41.9721 59.2335C41.7415 59.0351 41.4356 58.7721 41.1304 58.5102C40.8996 58.3121 40.6691 58.1146 40.4717 57.9453L42.2732 58.4435C42.4191 58.4838 42.5637 58.3783 42.5728 58.2324L42.5679 58.1679L42.3135 56.9368L43.4111 57.8811C43.5371 57.9894 43.7374 57.9391 43.7904 57.7754L44.3722 55.9739L44.7989 58.0512L44.8017 58.0626L44.8055 58.0743C44.8224 58.1245 44.8407 58.1782 44.8591 58.2185C44.8685 58.2389 44.8835 58.269 44.9071 58.297C44.9322 58.3267 44.9767 58.3657 45.0439 58.3783C45.1097 58.3906 45.164 58.3718 45.1962 58.3553C45.2275 58.3392 45.2526 58.3185 45.2695 58.3034C45.3026 58.2739 45.3406 58.2312 45.3779 58.1906L45.3802 58.1891L46.4137 57.0397L46.1714 58.2929C46.139 58.4606 46.2875 58.601 46.4485 58.5705L48.3091 58.2182L46.852 59.5295C46.715 59.6528 46.7667 59.873 46.9354 59.9297L48.4579 60.4381L46.6229 60.9193L46.622 60.9191L46.6092 60.9237C46.448 60.9783 46.3951 61.1812 46.5109 61.3077L46.5165 61.3147L46.5243 61.3211L48.2311 62.8666L46.5087 62.434Z" fill="#FFC933" stroke="#FF2E00" stroke-width="0.4"/>
<path d="M47.73 57.666C47.6 57.4648 47.3118 57.5616 47.2941 57.7768L47.2838 57.9073L46.8582 56.789C46.8058 56.6516 46.6312 56.5828 46.497 56.6809L43.7154 58.723L44.3391 57.4449C44.3872 57.3465 44.3605 57.2414 44.3002 57.1758L44.5598 56.8276C44.6277 56.737 44.6173 56.6262 44.5693 56.5521C44.5206 56.4771 44.4174 56.4186 44.3003 56.4549L43.005 56.8568L45.2784 55.2962C45.3886 55.2205 45.4112 55.0739 45.3449 54.9692L45.0399 54.4879C45.0232 54.4616 45.0009 54.4379 44.9746 54.4195L44.09 53.8027L44.1485 53.81C44.3729 53.8384 44.4726 53.5924 44.378 53.443L43.3938 51.89L45.1056 52.772C45.3128 52.8783 45.4901 52.6696 45.4426 52.4949L45.0926 51.2097L45.951 52.5401L46.0067 52.6015C46.129 52.6988 46.3096 52.641 46.3683 52.5036L46.3869 52.4293L46.4343 51.8372L46.9159 53.1032L46.9401 53.1519C47.0004 53.2413 47.1185 53.2845 47.225 53.2408L47.2772 53.2113L49.8579 51.3186L49.378 52.2998C49.3298 52.3987 49.3579 52.5041 49.419 52.5696L48.9386 53.2094C48.9296 53.2214 48.9222 53.2345 48.9157 53.2478L48.9009 53.2787C48.8568 53.3694 48.8766 53.4671 48.9287 53.533C48.9682 53.5831 49.0324 53.6219 49.1069 53.6241L49.1843 53.6129L50.5693 53.1838L48.3869 54.6809C48.2466 54.7772 48.2512 54.9824 48.3857 55.0763L49.6303 55.9435L49.2093 55.8891C48.9847 55.8604 48.8853 56.1057 48.9798 56.2551L50.1805 58.1506L48.4686 57.2686C48.2613 57.1619 48.0842 57.37 48.1316 57.5447L48.4827 58.8318L47.73 57.666Z" fill="#FFC933" stroke="#FF2E00" stroke-width="0.4"/>
<path d="M50.9974 54.2534C50.919 54.0962 50.6975 54.0648 50.5834 54.2134L49.4929 55.6334C49.4927 55.6228 49.4924 55.6119 49.4923 55.601C49.489 55.3154 49.4854 54.9328 49.4811 54.5453C49.4724 53.7689 49.4628 52.9753 49.4628 52.8955C49.4628 52.8648 49.4656 52.8376 49.4683 52.8032C49.4701 52.7799 49.4755 52.7238 49.4649 52.672C49.4586 52.6415 49.4444 52.5958 49.4078 52.555C49.3686 52.5114 49.319 52.4899 49.2732 52.4817C49.1987 52.4683 49.1259 52.4903 49.082 52.5056C48.9878 52.5388 48.2128 52.8623 47.4741 53.1712C47.1293 53.3154 46.7892 53.4585 46.523 53.5701L47.5581 52.1732C47.6701 52.0223 47.5791 51.8083 47.3969 51.7813L46.0293 51.5796L47.7339 50.6062C47.8911 50.5165 47.8967 50.3004 47.7617 50.1962L45.6258 48.5469L48.4638 49.1154L48.4766 49.1181L48.4893 49.1187L48.556 49.115C48.6822 49.0896 48.7653 48.9674 48.7496 48.8425L48.7328 48.78L48.7303 48.7736L47.768 46.6224C47.9639 46.7516 48.204 46.91 48.4448 47.0687C49.0026 47.4363 49.5758 47.8136 49.5953 47.8252C49.589 47.8215 49.5888 47.8219 49.6063 47.8346C49.6192 47.844 49.6364 47.8567 49.657 47.8719C49.6979 47.902 49.7514 47.9408 49.804 47.9786C49.8559 48.0158 49.9113 48.0545 49.9547 48.082C49.9749 48.0947 49.9997 48.1102 50.0234 48.1211C50.0318 48.125 50.0591 48.1371 50.0928 48.1419C50.1079 48.144 50.152 48.1494 50.2021 48.1282C50.253 48.1066 50.2908 48.0665 50.3106 48.019L50.3238 47.9696C50.3247 47.9629 50.3254 47.957 50.3256 47.955C50.3257 47.9529 50.3256 47.9506 50.3257 47.9493C50.3258 47.9469 50.3261 47.9441 50.3261 47.9423C50.3262 47.9386 50.3266 47.9341 50.3267 47.9296C50.3268 47.9202 50.3261 47.9072 50.3262 47.8915C50.3264 47.8598 50.3269 47.8144 50.327 47.7578C50.3273 47.6445 50.3272 47.4846 50.3272 47.2938C50.3272 46.9121 50.3268 46.4062 50.3263 45.9015C50.3258 45.429 50.3258 44.9573 50.3253 44.5893L51.4156 46.918C51.4818 47.0588 51.6622 47.1033 51.7837 47.0117L51.8324 46.9631L52.8801 45.5997L52.8795 47.5674C52.8796 47.7388 53.0538 47.8641 53.2197 47.7946L55.575 46.8087L53.8393 49.062L53.832 49.0707L53.8256 49.0812C53.7911 49.1393 53.757 49.1979 53.7352 49.2453C53.7242 49.2693 53.71 49.3029 53.7038 49.3414C53.6972 49.3824 53.6973 49.4437 53.7322 49.5044C53.7665 49.5639 53.8174 49.5944 53.8533 49.6092C53.8881 49.6236 53.9232 49.6299 53.9495 49.6336C54.0015 49.6407 54.0698 49.6426 54.1398 49.6452L54.142 49.645L56.2554 49.7L54.7136 50.5802C54.5584 50.6688 54.5504 50.8813 54.6817 50.987L56.6719 52.5887L54.0659 52.2435C53.8745 52.2182 53.7378 52.4102 53.8071 52.5808L54.6289 54.6013L52.5404 53.148L52.5281 53.1404C52.3764 53.0501 52.1811 53.1451 52.1596 53.3224L52.1585 53.3321L52.1581 53.3413L52.0794 56.4267L50.9974 54.2534Z" fill="#FFC933" stroke="#FF2E00" stroke-width="0.4"/>
<path d="M44.381 49.0067C44.5587 49.0177 44.6496 48.8504 44.6059 48.7124L45.2038 48.8797C45.3387 48.9175 45.4898 48.8218 45.4907 48.6642L45.5021 46.5481L45.8324 47.1869C45.8697 47.2593 45.9362 47.2984 46.0035 47.3078L46.076 47.5492C46.1066 47.6526 46.1974 47.7073 46.281 47.7123C46.3655 47.7175 46.4682 47.6722 46.5067 47.5625L46.6757 47.0769L46.6214 48.5503C46.6166 48.6772 46.715 48.778 46.8325 48.7867L47.2214 48.8146C47.251 48.8167 47.2817 48.8124 47.3107 48.8025L47.8515 48.6177C47.8353 48.7432 47.9398 48.8652 48.0654 48.8741L49.086 48.9469L48.1121 49.4311L48.0496 49.4744C47.9307 49.5891 47.9916 49.7907 48.1328 49.8457L48.6052 50.0304L47.9256 49.9873C47.7283 49.9753 47.6352 50.1833 47.7183 50.3264L47.765 50.3833L47.8623 50.4697L47.2366 50.2936L47.1856 50.2855C47.0835 50.2813 46.9845 50.3466 46.9576 50.4523L46.9502 50.5083L46.9387 52.4541L46.7125 52.0155C46.6748 51.9426 46.6078 51.9039 46.54 51.8949L46.3973 51.4122C46.3932 51.3984 46.3877 51.3853 46.3812 51.3727L46.3705 51.3525C46.3003 51.217 46.092 51.1786 45.9918 51.3114L45.9559 51.3787L45.7642 51.9248L45.8174 50.5273C45.8232 50.3655 45.6646 50.2527 45.517 50.3029L44.7788 50.5543L44.8021 50.5307C44.9497 50.3761 44.8208 50.1594 44.6521 50.1474L43.3548 50.0553L44.33 49.5707C44.5264 49.473 44.4701 49.2199 44.3088 49.157L43.8343 48.9721L44.381 49.0067Z" fill="#FFC933" stroke="#FF2E00" stroke-width="0.4"/>
<path d="M53.8216 48.1008C53.7432 47.9436 53.5217 47.9122 53.4077 48.0608L52.3171 49.4808C52.3169 49.4702 52.3166 49.4593 52.3165 49.4484C52.3132 49.1628 52.3096 48.7802 52.3053 48.3927C52.2966 47.6163 52.287 46.8227 52.287 46.743C52.287 46.7122 52.2898 46.685 52.2925 46.6506C52.2943 46.6274 52.2997 46.5712 52.2891 46.5194C52.2829 46.489 52.2686 46.4432 52.232 46.4024C52.1928 46.3588 52.1432 46.3373 52.0975 46.3291C52.0229 46.3157 51.9501 46.3377 51.9062 46.353C51.812 46.3862 51.0371 46.7097 50.2984 47.0186C49.9535 47.1628 49.6134 47.3059 49.3472 47.4175L50.3823 46.0206C50.4943 45.8697 50.4033 45.6557 50.2212 45.6287L48.8536 45.427L50.5581 44.4537C50.7153 44.3639 50.721 44.1478 50.5859 44.0436L48.45 42.3943L51.288 42.9628L51.3009 42.9655L51.3136 42.9661L51.3802 42.9624C51.5064 42.937 51.5895 42.8148 51.5738 42.6899L51.557 42.6274L51.5545 42.621L50.5922 40.4698C50.7881 40.599 51.0282 40.7574 51.2691 40.9161C51.8268 41.2837 52.4001 41.661 52.4195 41.6727C52.4132 41.6689 52.413 41.6693 52.4305 41.6821C52.4434 41.6915 52.4606 41.7041 52.4812 41.7193C52.5222 41.7494 52.5756 41.7882 52.6282 41.826C52.6801 41.8632 52.7355 41.9019 52.7789 41.9294C52.7991 41.9421 52.8239 41.9576 52.8476 41.9685C52.8561 41.9724 52.8833 41.9845 52.917 41.9893C52.9321 41.9914 52.9762 41.9968 53.0263 41.9756C53.0772 41.9541 53.115 41.9139 53.1348 41.8665L53.148 41.817C53.149 41.8104 53.1496 41.8044 53.1498 41.8025C53.1499 41.8003 53.1498 41.798 53.1499 41.7968C53.15 41.7943 53.1503 41.7915 53.1503 41.7897C53.1504 41.786 53.1508 41.7815 53.1509 41.777C53.151 41.7676 53.1503 41.7546 53.1504 41.7389C53.1506 41.7072 53.1511 41.6618 53.1512 41.6052C53.1515 41.4919 53.1514 41.332 53.1514 41.1412C53.1514 40.7595 53.1511 40.2536 53.1505 39.7489C53.15 39.2764 53.1501 38.8048 53.1495 38.4367L54.2398 40.7654C54.306 40.9062 54.4864 40.9507 54.608 40.8591L54.6567 40.8105L55.7043 39.4471L55.7037 41.4148C55.7038 41.5862 55.8781 41.7115 56.0439 41.642L58.3992 40.6561L56.6635 42.9094L56.6562 42.9181L56.6498 42.9286C56.6153 42.9868 56.5812 43.0453 56.5595 43.0927C56.5484 43.1167 56.5343 43.1503 56.528 43.1889C56.5214 43.2298 56.5215 43.2912 56.5564 43.3519C56.5907 43.4113 56.6416 43.4418 56.6775 43.4566C56.7123 43.471 56.7474 43.4774 56.7737 43.481C56.8257 43.4882 56.8941 43.49 56.964 43.4926L56.9662 43.4925L59.0797 43.5475L57.5378 44.4276C57.3826 44.5162 57.3746 44.7287 57.5059 44.8344L59.4961 46.4361L56.8902 46.0909C56.6987 46.0656 56.562 46.2576 56.6313 46.4283L57.4531 48.4487L55.3646 46.9954L55.3523 46.9878C55.2006 46.8975 55.0053 46.9925 54.9838 47.1698L54.9827 47.1795L54.9823 47.1887L54.9036 50.2741L53.8216 48.1008Z" fill="#FFC933" stroke="#FF2E00" stroke-width="0.4"/>
<g filter="url(#filter0_d_329_5953)">
<ellipse cx="5.65391" cy="5.40418" rx="5.65391" ry="5.40418" transform="matrix(-1 0 0 1 16.3076 27.9347)" fill="black"/>
<ellipse cx="5.65391" cy="5.40418" rx="5.65391" ry="5.40418" transform="matrix(-1 0 0 1 38.9863 19.8162)" fill="black"/>
<path d="M27.9141 24.0586C18.5541 22.866 9.41024 29.756 8.75977 38.5479C8.23611 45.6261 12.8587 51.1558 17.7412 51.751C21.786 52.244 27.2374 51.1669 31.877 49.0273C36.4917 46.8992 40.4855 43.6328 41.3574 39.6172C43.0673 31.7413 36.6658 25.1739 27.9141 24.0586Z" fill="white" stroke="black"/>
<path d="M26.5142 41.9005C26.5142 41.9005 26.821 43.6773 25.9949 44.2612" stroke="black"/>
<path d="M26.4541 41.9583C26.4541 41.9583 27.2993 43.5495 28.3084 43.5007" stroke="black"/>
<path d="M26.6575 42.7528C25.8209 42.9873 25.4035 43.7144 25.5647 44.2943C25.6495 44.5989 25.9793 45.035 26.4364 45.3695C26.8995 45.7083 27.3644 45.8498 27.6862 45.7596C27.9841 45.676 28.2255 45.3676 28.36 44.873C28.4913 44.39 28.4834 43.8478 28.3876 43.5032C28.2263 42.9233 27.4942 42.5183 26.6575 42.7528Z" fill="white" stroke="black" stroke-width="0.75"/>
<path d="M27.6546 40.3498C27.6546 40.3498 26.5419 40.242 25.8947 40.4797C25.2717 40.7086 24.4739 41.3702 24.4739 41.3702C24.4739 41.3702 24.7446 42.3946 26.2231 42.3946C26.5188 42.3946 26.6922 42.3188 26.945 42.1646C27.8811 41.5939 27.6546 40.3498 27.6546 40.3498Z" fill="black"/>
<path d="M18.1006 36.6365C16.6569 36.6365 15.4834 37.8123 15.4834 39.2664C15.4836 40.7203 16.6571 41.8953 18.1006 41.8953C19.5441 41.8952 20.7176 40.7202 20.7178 39.2664C20.7178 37.8123 19.5442 36.6365 18.1006 36.6365Z" stroke="black"/>
<path d="M31.0811 32.1378C29.6374 32.1378 28.4639 33.3136 28.4639 34.7677C28.4641 36.2216 29.6375 37.3966 31.0811 37.3966C32.5245 37.3965 33.698 36.2216 33.6982 34.7677C33.6982 33.3137 32.5247 32.1379 31.0811 32.1378Z" stroke="black"/>
</g>
<g filter="url(#filter1_dd_329_5953)">
<path d="M14.4115 18.9621L15.989 18.2911L16.66 19.8687L15.0824 20.5396L14.4115 18.9621ZM15.989 18.2911L17.5665 17.6202L18.2375 19.1977L16.66 19.8687L15.989 18.2911ZM16.66 19.8687L18.2375 19.1977L18.9084 20.7752L17.3309 21.4462L16.66 19.8687ZM15.0824 20.5396L16.66 19.8687L17.3309 21.4462L15.7534 22.1171L15.0824 20.5396ZM9.04379 6.34188L10.6213 5.67092L11.2923 7.24845L9.71475 7.91941L9.04379 6.34188ZM10.6213 5.67092L12.1988 4.99996L12.8698 6.57749L11.2923 7.24845L10.6213 5.67092ZM11.2923 7.24845L12.8698 6.57749L13.5408 8.15501L11.9632 8.82597L11.2923 7.24845ZM11.9632 8.82597L13.5408 8.15501L14.2117 9.73254L12.6342 10.4035L11.9632 8.82597ZM12.6342 10.4035L14.2117 9.73254L14.8827 11.3101L13.3052 11.981L12.6342 10.4035ZM13.3052 11.981L14.8827 11.3101L15.5536 12.8876L13.9761 13.5586L13.3052 11.981ZM13.9761 13.5586L15.5536 12.8876L16.2246 14.4651L14.6471 15.1361L13.9761 13.5586ZM12.3986 14.2295L13.9761 13.5586L14.6471 15.1361L13.0695 15.807L12.3986 14.2295ZM11.7276 12.652L13.3052 11.981L13.9761 13.5586L12.3986 14.2295L11.7276 12.652ZM11.0567 11.0745L12.6342 10.4035L13.3052 11.981L11.7276 12.652L11.0567 11.0745ZM10.3857 9.49693L11.9632 8.82597L12.6342 10.4035L11.0567 11.0745L10.3857 9.49693ZM9.71475 7.91941L11.2923 7.24845L11.9632 8.82597L10.3857 9.49693L9.71475 7.91941ZM13.0695 15.807L14.6471 15.1361L15.318 16.7136L13.7405 17.3846L13.0695 15.807ZM14.6471 15.1361L16.2246 14.4651L16.8956 16.0426L15.318 16.7136L14.6471 15.1361Z" fill="#FF2E00"/>
</g>
<mask id="mask8_329_5953" style="mask-type:alpha" maskUnits="userSpaceOnUse" x="5" y="19" width="38" height="34">
<ellipse cx="5.65391" cy="5.40418" rx="5.65391" ry="5.40418" transform="matrix(-1 0 0 1 16.3076 27.9347)" fill="black"/>
<ellipse cx="5.65391" cy="5.40418" rx="5.65391" ry="5.40418" transform="matrix(-1 0 0 1 38.9863 19.8162)" fill="black"/>
<path d="M27.9141 24.0586C18.5541 22.866 9.41024 29.756 8.75977 38.5479C8.23611 45.6261 12.8587 51.1558 17.7412 51.751C21.786 52.244 27.2374 51.1669 31.877 49.0273C36.4917 46.8992 40.4855 43.6328 41.3574 39.6172C43.0673 31.7413 36.6658 25.1739 27.9141 24.0586Z" fill="white" stroke="black"/>
<path d="M31.3553 31.7363C29.5153 31.7364 28.5728 32.0663 28.0459 34.4427C27.5163 36.8312 29.624 38.9533 32.1883 39.1294C33.8441 39.2431 35.3224 38.6013 35.6731 36.687C36.1361 34.1597 33.0001 31.7363 31.3553 31.7363Z" fill="black"/>
<path d="M30.1796 35.2031C29.8666 35.2031 29.5902 35.4107 29.5902 35.6796C29.5902 36.2093 30.0835 36.6557 30.5196 36.6917C30.8012 36.7149 31.027 36.6005 31.0867 36.2093C31.1654 35.6929 30.4593 35.2031 30.1796 35.2031Z" fill="white"/>
<path d="M18.3675 36.3351C20.2075 36.3352 21.6904 37.05 22.0444 39.3121C22.4226 41.7294 21.182 44.3708 18.6177 44.5469C16.7872 44.6726 15.9702 43.7316 15.6195 41.8173C15.1565 39.29 16.7227 36.335 18.3675 36.3351Z" fill="black"/>
<path d="M20.0145 39.1421C20.3551 39.1421 20.6295 39.295 20.695 39.7788C20.765 40.2957 20.5354 40.8606 20.0608 40.8983C19.7221 40.9251 19.5709 40.7239 19.506 40.3145C19.4203 39.774 19.7101 39.1421 20.0145 39.1421Z" fill="white"/>
<path d="M27.6546 40.3498C27.6546 40.3498 26.5419 40.242 25.8947 40.4797C25.2717 40.7086 24.4739 41.3702 24.4739 41.3702C24.4739 41.3702 24.7446 42.3946 26.2231 42.3946C26.5188 42.3946 26.6922 42.3188 26.945 42.1646C27.8811 41.5939 27.6546 40.3498 27.6546 40.3498Z" fill="black"/>
<path d="M23.7274 44.7123C23.4947 44.5642 23.426 44.2546 23.5738 44.021C23.7216 43.7874 24.03 43.7181 24.2627 43.8663L23.995 44.2893L23.7274 44.7123ZM25.9954 44.5193L26.2825 44.9288L25.9954 44.5193ZM26.5146 42.1586C27.0064 42.0726 27.0064 42.0728 27.0064 42.0729C27.0064 42.0729 27.0065 42.0731 27.0065 42.0732C27.0065 42.0734 27.0066 42.0737 27.0066 42.0739C27.0067 42.0745 27.0068 42.0751 27.0069 42.0759C27.0072 42.0774 27.0075 42.0794 27.0079 42.0818C27.0087 42.0865 27.0097 42.093 27.011 42.101C27.0135 42.1171 27.0168 42.1396 27.0207 42.1678C27.0284 42.224 27.038 42.3033 27.0467 42.3997C27.064 42.5912 27.0781 42.8564 27.0632 43.1453C27.0485 43.4316 27.0046 43.7604 26.8957 44.0704C26.7867 44.3803 26.601 44.7036 26.2825 44.9288L25.9954 44.5193L25.7083 44.1098C25.8028 44.043 25.8885 43.9252 25.9544 43.7378C26.0203 43.5504 26.0545 43.3256 26.0664 43.0946C26.0781 42.8664 26.0671 42.6509 26.0527 42.4909C26.0455 42.4116 26.0376 42.3475 26.0318 42.3043C26.0288 42.2828 26.0264 42.2665 26.0248 42.2563C26.024 42.2512 26.0234 42.2476 26.0231 42.2456C26.0229 42.2446 26.0228 42.244 26.0228 42.2438C26.0228 42.2437 26.0228 42.2437 26.0228 42.2439C26.0228 42.2439 26.0228 42.244 26.0228 42.2441C26.0229 42.2442 26.0229 42.2443 26.0229 42.2443C26.0229 42.2444 26.0229 42.2445 26.5146 42.1586ZM25.9954 44.5193L26.2825 44.9288C25.6956 45.3435 24.9955 45.2265 24.5548 45.0885C24.3196 45.0149 24.1161 44.9224 23.9725 44.8494C23.9001 44.8126 23.8413 44.7799 23.7996 44.7558C23.7787 44.7437 23.7619 44.7337 23.7498 44.7262C23.7437 44.7225 23.7388 44.7195 23.735 44.7172C23.7331 44.716 23.7315 44.715 23.7303 44.7142C23.7296 44.7138 23.7291 44.7134 23.7286 44.7131C23.7283 44.713 23.7281 44.7128 23.7279 44.7127C23.7278 44.7126 23.7277 44.7125 23.7276 44.7125C23.7275 44.7124 23.7274 44.7123 23.995 44.2893C24.2627 43.8663 24.2626 43.8662 24.2624 43.8662C24.2624 43.8662 24.2623 43.8661 24.2622 43.866C24.2621 43.866 24.262 43.8659 24.2619 43.8658C24.2617 43.8657 24.2616 43.8656 24.2615 43.8656C24.2614 43.8655 24.2616 43.8657 24.2621 43.866C24.263 43.8665 24.265 43.8678 24.2681 43.8697C24.2743 43.8734 24.2846 43.8796 24.2986 43.8877C24.3268 43.904 24.3697 43.9279 24.4241 43.9556C24.5341 44.0115 24.6849 44.0795 24.8527 44.132C25.2179 44.2464 25.5179 44.2443 25.7083 44.1098L25.9954 44.5193Z" fill="black"/>
<path d="M30.2166 42.5117C30.3093 42.2516 30.1737 41.9655 29.9136 41.8727C29.6535 41.7799 29.3674 41.9155 29.2747 42.1756L29.7456 42.3436L30.2166 42.5117ZM28.308 43.7588L28.3322 44.2582L28.308 43.7588ZM26.4536 42.2163C26.012 42.4508 26.0121 42.4509 26.0122 42.451C26.0122 42.4511 26.0123 42.4512 26.0123 42.4513C26.0124 42.4515 26.0125 42.4517 26.0127 42.452C26.0129 42.4525 26.0132 42.453 26.0136 42.4537C26.0143 42.4551 26.0153 42.4568 26.0164 42.459C26.0187 42.4632 26.0218 42.4689 26.0258 42.476C26.0336 42.4903 26.0448 42.5101 26.059 42.5347C26.0873 42.5838 26.1282 42.6523 26.1803 42.7337C26.2839 42.8954 26.435 43.1133 26.6236 43.3321C26.8103 43.5489 27.0461 43.7813 27.3219 43.9588C27.5976 44.1362 27.9424 44.277 28.3322 44.2582L28.308 43.7588L28.2837 43.2593C28.1689 43.2649 28.0296 43.2251 27.863 43.1179C27.6965 43.0107 27.5319 42.8545 27.3812 42.6795C27.2322 42.5067 27.109 42.3298 27.0225 42.1947C26.9796 42.1276 26.9466 42.0722 26.9248 42.0345C26.914 42.0157 26.9059 42.0014 26.9009 41.9923C26.8984 41.9878 26.8967 41.9846 26.8957 41.9828C26.8952 41.9819 26.8949 41.9814 26.8949 41.9812C26.8948 41.9811 26.8948 41.9811 26.8949 41.9812C26.8949 41.9813 26.8949 41.9813 26.895 41.9814C26.895 41.9815 26.8951 41.9816 26.8951 41.9816C26.8951 41.9817 26.8952 41.9818 26.4536 42.2163ZM28.308 43.7588L28.3322 44.2582C29.05 44.2235 29.5309 43.6987 29.794 43.3185C29.9345 43.1154 30.0384 42.917 30.1071 42.7709C30.1417 42.6972 30.168 42.6352 30.1862 42.5904C30.1953 42.568 30.2023 42.5497 30.2074 42.5364C30.2099 42.5298 30.212 42.5243 30.2135 42.5201C30.2142 42.5181 30.2149 42.5163 30.2154 42.5149C30.2157 42.5142 30.2159 42.5136 30.2161 42.513C30.2162 42.5128 30.2163 42.5125 30.2163 42.5123C30.2164 42.5122 30.2164 42.512 30.2165 42.512C30.2165 42.5118 30.2166 42.5117 29.7456 42.3436C29.2747 42.1756 29.2747 42.1755 29.2748 42.1753C29.2748 42.1753 29.2748 42.1752 29.2748 42.1751C29.2749 42.175 29.2749 42.1748 29.275 42.1747C29.2751 42.1745 29.2751 42.1744 29.2751 42.1743C29.2752 42.1742 29.2751 42.1745 29.2749 42.175C29.2745 42.176 29.2737 42.1782 29.2724 42.1816C29.2698 42.1884 29.2655 42.1996 29.2594 42.2147C29.2471 42.245 29.2279 42.2903 29.2019 42.3457C29.1493 42.4577 29.0718 42.6045 28.9716 42.7495C28.7531 43.0653 28.5152 43.2481 28.2837 43.2593L28.308 43.7588Z" fill="black"/>
</mask>
<g mask="url(#mask8_329_5953)">
<rect x="5" y="19.8162" width="37" height="33" fill="url(#paint13_radial_329_5953)" style="mix-blend-mode:multiply"/>
</g>
<defs>
<filter id="filter0_d_329_5953" x="0" y="16.8162" width="42.1372" height="36.553" filterUnits="userSpaceOnUse" color-interpolation-filters="sRGB">
<feFlood flood-opacity="0" result="BackgroundImageFix"/>
<feColorMatrix in="SourceAlpha" type="matrix" values="0 0 0 0 0 0 0 0 0 0 0 0 0 0 0 0 0 0 127 0" result="hardAlpha"/>
<feOffset dx="-3" dy="-1"/>
<feGaussianBlur stdDeviation="1"/>
<feComposite in2="hardAlpha" operator="out"/>
<feColorMatrix type="matrix" values="0 0 0 0 0 0 0 0 0 0 0 0 0 0 0 0 0 0 0.7 0"/>
<feBlend mode="normal" in2="BackgroundImageFix" result="effect1_dropShadow_329_5953"/>
<feBlend mode="normal" in="SourceGraphic" in2="effect1_dropShadow_329_5953" result="shape"/>
</filter>
<filter id="filter1_dd_329_5953" x="4.04395" y="0" width="19.8643" height="27.1172" filterUnits="userSpaceOnUse" color-interpolation-filters="sRGB">
<feFlood flood-opacity="0" result="BackgroundImageFix"/>
<feColorMatrix in="SourceAlpha" type="matrix" values="0 0 0 0 0 0 0 0 0 0 0 0 0 0 0 0 0 0 127 0" result="hardAlpha"/>
<feOffset dx="1" dy="1"/>
<feGaussianBlur stdDeviation="2"/>
<feComposite in2="hardAlpha" operator="out"/>
<feColorMatrix type="matrix" values="0 0 0 0 1 0 0 0 0 0.788235 0 0 0 0 0.2 0 0 0 0.5 0"/>
<feBlend mode="normal" in2="BackgroundImageFix" result="effect1_dropShadow_329_5953"/>
<feColorMatrix in="SourceAlpha" type="matrix" values="0 0 0 0 0 0 0 0 0 0 0 0 0 0 0 0 0 0 127 0" result="hardAlpha"/>
<feOffset dx="-1" dy="-1"/>
<feGaussianBlur stdDeviation="2"/>
<feComposite in2="hardAlpha" operator="out"/>
<feColorMatrix type="matrix" values="0 0 0 0 1 0 0 0 0 0.788235 0 0 0 0 0.2 0 0 0 1 0"/>
<feBlend mode="normal" in2="effect1_dropShadow_329_5953" result="effect2_dropShadow_329_5953"/>
<feBlend mode="normal" in="SourceGraphic" in2="effect2_dropShadow_329_5953" result="shape"/>
</filter>
<linearGradient id="paint0_linear_329_5953" x1="3.38639" y1="11.7658" x2="-1.84516" y2="11.8173" gradientUnits="userSpaceOnUse">
<stop offset="0.2"/>
<stop offset="0.45" stop-opacity="0"/>
<stop offset="0.55" stop-opacity="0"/>
<stop offset="0.8"/>
</linearGradient>
<linearGradient id="paint1_linear_329_5953" x1="0.821174" y1="-0.796012" x2="0.719574" y2="24.3793" gradientUnits="userSpaceOnUse">
<stop/>
<stop offset="0.0579945" stop-opacity="0"/>
<stop offset="0.918093" stop-opacity="0"/>
<stop offset="1"/>
</linearGradient>
<linearGradient id="paint2_linear_329_5953" x1="4.47398" y1="3.9717" x2="-0.200706" y2="6.91788" gradientUnits="userSpaceOnUse">
<stop stop-opacity="0"/>
<stop offset="0.4462" stop-opacity="0.05"/>
<stop offset="0.675606" stop-opacity="0.4"/>
<stop offset="1" stop-opacity="0.4"/>
</linearGradient>
<linearGradient id="paint3_linear_329_5953" x1="5.0295" y1="3.29861" x2="0.0490199" y2="3.14785" gradientUnits="userSpaceOnUse">
<stop offset="0.157032" stop-color="white" stop-opacity="0.9"/>
<stop offset="0.545704" stop-color="white" stop-opacity="0"/>
</linearGradient>
<linearGradient id="paint4_linear_329_5953" x1="57.3213" y1="33.1688" x2="37.8113" y2="62.7717" gradientUnits="userSpaceOnUse">
<stop offset="0.149499" stop-opacity="0.05"/>
<stop offset="0.799589" stop-opacity="0.5"/>
<stop offset="1" stop-opacity="0.8"/>
</linearGradient>
<linearGradient id="paint5_linear_329_5953" x1="3.22847" y1="-0.264129" x2="2.3312" y2="8.60523" gradientUnits="userSpaceOnUse">
<stop stop-opacity="0.75"/>
<stop offset="0.511496" stop-opacity="0.3"/>
<stop offset="1" stop-opacity="0"/>
</linearGradient>
<linearGradient id="paint6_linear_329_5953" x1="3.22972" y1="-0.264027" x2="2.33347" y2="8.60206" gradientUnits="userSpaceOnUse">
<stop stop-opacity="0.6"/>
<stop offset="0.649038" stop-opacity="0.4"/>
<stop offset="0.778846" stop-opacity="0.05"/>
<stop offset="1" stop-opacity="0"/>
</linearGradient>
<linearGradient id="paint7_linear_329_5953" x1="3.83355" y1="-0.149942" x2="0.606678" y2="7.8035" gradientUnits="userSpaceOnUse">
<stop stop-opacity="0.4"/>
<stop offset="0.293269" stop-opacity="0.4"/>
<stop offset="0.490385" stop-opacity="0.05"/>
<stop offset="1" stop-opacity="0"/>
</linearGradient>
<linearGradient id="paint8_linear_329_5953" x1="3.21232" y1="-0.713984" x2="2.09515" y2="8.61458" gradientUnits="userSpaceOnUse">
<stop stop-opacity="0.4"/>
<stop offset="0.363295" stop-opacity="0.4"/>
<stop offset="0.657784" stop-opacity="0.05"/>
<stop offset="1" stop-opacity="0"/>
</linearGradient>
<linearGradient id="paint9_linear_329_5953" x1="4.67641" y1="4.13247" x2="0.313711" y2="3.04971" gradientUnits="userSpaceOnUse">
<stop offset="0.680377" stop-color="white" stop-opacity="0"/>
<stop offset="1" stop-color="white" stop-opacity="0.8"/>
</linearGradient>
<linearGradient id="paint10_linear_329_5953" x1="5.45504" y1="0.0168019" x2="-0.194861" y2="7.70015" gradientUnits="userSpaceOnUse">
<stop stop-opacity="0.4"/>
<stop offset="0.324393" stop-opacity="0.4"/>
<stop offset="0.5538" stop-opacity="0.05"/>
<stop offset="1" stop-opacity="0"/>
</linearGradient>
<linearGradient id="paint11_linear_329_5953" x1="4.67596" y1="4.13288" x2="0.538661" y2="2.98408" gradientUnits="userSpaceOnUse">
<stop offset="0.536328" stop-color="white" stop-opacity="0"/>
<stop offset="1" stop-color="white" stop-opacity="0.8"/>
</linearGradient>
<linearGradient id="paint12_linear_329_5953" x1="4.95673" y1="5.09266" x2="0.73188" y2="2.97202" gradientUnits="userSpaceOnUse">
<stop offset="0.536328" stop-color="white" stop-opacity="0"/>
<stop offset="1" stop-color="white" stop-opacity="0.8"/>
</linearGradient>
<radialGradient id="paint13_radial_329_5953" cx="0" cy="0" r="1" gradientUnits="userSpaceOnUse" gradientTransform="translate(42 52.8162) rotate(-143.379) scale(46.1004 51.6884)">
<stop offset="0.350962" stop-color="#FFC933" stop-opacity="0.5"/>
<stop offset="0.620192" stop-color="#FF2E00" stop-opacity="0.3"/>
<stop offset="0.75" stop-color="#614800" stop-opacity="0.5"/>
</radialGradient>
</defs>
</svg>
